<?xml version="1.0" encoding="UTF-8" standalone="no"?>
<!-- Created with Inkscape (http://www.inkscape.org/) -->

<svg
   width="333.991mm"
   height="311.04901mm"
   viewBox="0 0 333.991 311.04901"
   version="1.1"
   id="svg1"
   xml:space="preserve"
   inkscape:version="1.3.2 (091e20e, 2023-11-25)"
   sodipodi:docname="paxton-as-pixi.svg"
   inkscape:export-filename="paxton-as-pixi2.pdf"
   inkscape:export-xdpi="96"
   inkscape:export-ydpi="96"
   xmlns:inkscape="http://www.inkscape.org/namespaces/inkscape"
   xmlns:sodipodi="http://sodipodi.sourceforge.net/DTD/sodipodi-0.dtd"
   xmlns="http://www.w3.org/2000/svg"
   xmlns:svg="http://www.w3.org/2000/svg"><sodipodi:namedview
     id="namedview1"
     pagecolor="#ffffff"
     bordercolor="#000000"
     borderopacity="0.25"
     inkscape:showpageshadow="2"
     inkscape:pageopacity="0.0"
     inkscape:pagecheckerboard="0"
     inkscape:deskcolor="#d14dd1"
     inkscape:document-units="mm"
     inkscape:zoom="0.23880188"
     inkscape:cx="674.19903"
     inkscape:cy="1316.9913"
     inkscape:window-width="1392"
     inkscape:window-height="1212"
     inkscape:window-x="0"
     inkscape:window-y="25"
     inkscape:window-maximized="0"
     inkscape:current-layer="layer-MC0"
     showguides="false" /><defs
     id="defs1"><clipPath
       clipPathUnits="userSpaceOnUse"
       id="clipPath2"><path
         d="M 0,881.714 H 946.745 V 0 H 0 Z"
         transform="translate(-693.82432,-114.638)"
         id="path2" /></clipPath><radialGradient
       fx="0"
       fy="0"
       cx="0"
       cy="0"
       r="1"
       gradientUnits="userSpaceOnUse"
       gradientTransform="matrix(399.41992,211.06978,167.47081,-286.27112,481.7323,456.73389)"
       spreadMethod="pad"
       id="radialGradient4"><stop
         style="stop-opacity:1;stop-color:#1f4975"
         offset="0"
         id="stop2" /><stop
         style="stop-opacity:1;stop-color:#14253a"
         offset="0.99984"
         id="stop3" /><stop
         style="stop-opacity:1;stop-color:#14253a"
         offset="1"
         id="stop4" /></radialGradient><clipPath
       clipPathUnits="userSpaceOnUse"
       id="clipPath6"><path
         d="M 0,881.714 H 946.745 V 0 H 0 Z"
         transform="translate(-270.91981,-390.39001)"
         id="path6" /></clipPath><clipPath
       clipPathUnits="userSpaceOnUse"
       id="clipPath8"><path
         d="M 0,881.714 H 946.745 V 0 H 0 Z"
         transform="translate(-264.03441,-395.74531)"
         id="path8" /></clipPath><clipPath
       clipPathUnits="userSpaceOnUse"
       id="clipPath10"><path
         d="M 0,881.714 H 946.745 V 0 H 0 Z"
         transform="translate(-315.55731,-425.56071)"
         id="path10" /></clipPath><clipPath
       clipPathUnits="userSpaceOnUse"
       id="clipPath12"><path
         d="M 0,881.714 H 946.745 V 0 H 0 Z"
         transform="translate(-282.3955,-367.15171)"
         id="path12" /></clipPath><clipPath
       clipPathUnits="userSpaceOnUse"
       id="clipPath14"><path
         d="M 0,881.714 H 946.745 V 0 H 0 Z"
         transform="translate(-283.95891,-354.06131)"
         id="path14" /></clipPath><clipPath
       clipPathUnits="userSpaceOnUse"
       id="clipPath16"><path
         d="M 0,881.714 H 946.745 V 0 H 0 Z"
         transform="translate(-246.59031,-378.48921)"
         id="path16" /></clipPath><clipPath
       clipPathUnits="userSpaceOnUse"
       id="clipPath18"><path
         d="M 0,881.714 H 946.745 V 0 H 0 Z"
         transform="translate(-242.62371,-302.05021)"
         id="path18" /></clipPath><clipPath
       clipPathUnits="userSpaceOnUse"
       id="clipPath20"><path
         d="M 0,881.714 H 946.745 V 0 H 0 Z"
         transform="translate(-206.5345,-315.51501)"
         id="path20" /></clipPath><clipPath
       clipPathUnits="userSpaceOnUse"
       id="clipPath22"><path
         d="M 0,881.714 H 946.745 V 0 H 0 Z"
         transform="translate(-634.12601,-483.34331)"
         id="path22" /></clipPath><clipPath
       clipPathUnits="userSpaceOnUse"
       id="clipPath24"><path
         d="M 0,881.714 H 946.745 V 0 H 0 Z"
         transform="translate(-677.78992,-467.53271)"
         id="path24" /></clipPath><clipPath
       clipPathUnits="userSpaceOnUse"
       id="clipPath26"><path
         d="M 0,881.714 H 946.745 V 0 H 0 Z"
         transform="translate(-747.48842,-555.08802)"
         id="path26" /></clipPath><clipPath
       clipPathUnits="userSpaceOnUse"
       id="clipPath28"><path
         d="M 0,881.714 H 946.745 V 0 H 0 Z"
         transform="translate(-702.71592,-579.48861)"
         id="path28" /></clipPath><clipPath
       clipPathUnits="userSpaceOnUse"
       id="clipPath30"><path
         d="M 0,881.714 H 946.745 V 0 H 0 Z"
         transform="translate(-661.60391,-503.32681)"
         id="path30" /></clipPath><clipPath
       clipPathUnits="userSpaceOnUse"
       id="clipPath32"><path
         d="M 0,881.714 H 946.745 V 0 H 0 Z"
         transform="translate(-752.59442,-619.03102)"
         id="path32" /></clipPath><clipPath
       clipPathUnits="userSpaceOnUse"
       id="clipPath34"><path
         d="M 0,881.714 H 946.745 V 0 H 0 Z"
         transform="translate(-782.90942,-599.85702)"
         id="path34" /></clipPath><clipPath
       clipPathUnits="userSpaceOnUse"
       id="clipPath36"><path
         d="M 0,881.714 H 946.745 V 0 H 0 Z"
         transform="translate(-744.17882,-620.51322)"
         id="path36" /></clipPath><clipPath
       clipPathUnits="userSpaceOnUse"
       id="clipPath38"><path
         d="M 0,881.714 H 946.745 V 0 H 0 Z"
         transform="translate(-344.78691,-398.06861)"
         id="path38" /></clipPath><clipPath
       clipPathUnits="userSpaceOnUse"
       id="clipPath40"><path
         d="M 0,881.714 H 946.745 V 0 H 0 Z"
         transform="translate(-358.07991,-401.03121)"
         id="path40" /></clipPath><clipPath
       clipPathUnits="userSpaceOnUse"
       id="clipPath42"><path
         d="M 0,881.714 H 946.745 V 0 H 0 Z"
         transform="translate(-674.04572,-396.26141)"
         id="path42" /></clipPath><clipPath
       clipPathUnits="userSpaceOnUse"
       id="clipPath44"><path
         d="M 0,881.714 H 946.745 V 0 H 0 Z"
         transform="translate(-307.14111,-457.28611)"
         id="path44" /></clipPath><clipPath
       clipPathUnits="userSpaceOnUse"
       id="clipPath46"><path
         d="M 0,881.714 H 946.745 V 0 H 0 Z"
         transform="translate(-585.27011,-286.77251)"
         id="path46" /></clipPath><clipPath
       clipPathUnits="userSpaceOnUse"
       id="clipPath48"><path
         d="M 0,881.714 H 946.745 V 0 H 0 Z"
         transform="translate(-467.83941,-348.67341)"
         id="path48" /></clipPath><clipPath
       clipPathUnits="userSpaceOnUse"
       id="clipPath50"><path
         d="M 0,881.714 H 946.745 V 0 H 0 Z"
         transform="translate(-391.97751,-543.96441)"
         id="path50" /></clipPath><clipPath
       clipPathUnits="userSpaceOnUse"
       id="clipPath52"><path
         d="M 0,881.714 H 946.745 V 0 H 0 Z"
         transform="translate(-331.74691,-459.74181)"
         id="path52" /></clipPath><clipPath
       clipPathUnits="userSpaceOnUse"
       id="clipPath54"><path
         d="M 0,881.714 H 946.745 V 0 H 0 Z"
         transform="translate(-396.81531,-268.94651)"
         id="path54" /></clipPath><clipPath
       clipPathUnits="userSpaceOnUse"
       id="clipPath56"><path
         d="M 0,881.714 H 946.745 V 0 H 0 Z"
         transform="translate(-358.65791,-471.89071)"
         id="path56" /></clipPath><clipPath
       clipPathUnits="userSpaceOnUse"
       id="clipPath58"><path
         d="M 0,881.714 H 946.745 V 0 H 0 Z"
         transform="translate(-372.16021,-433.45571)"
         id="path58" /></clipPath><clipPath
       clipPathUnits="userSpaceOnUse"
       id="clipPath60"><path
         d="M 0,881.714 H 946.745 V 0 H 0 Z"
         transform="translate(-370.55511,-402.40911)"
         id="path60" /></clipPath><clipPath
       clipPathUnits="userSpaceOnUse"
       id="clipPath62"><path
         d="M 0,881.714 H 946.745 V 0 H 0 Z"
         transform="translate(-331.20141,-426.70131)"
         id="path62" /></clipPath><clipPath
       clipPathUnits="userSpaceOnUse"
       id="clipPath64"><path
         d="M 0,881.714 H 946.745 V 0 H 0 Z"
         transform="translate(-556.88842,-593.16801)"
         id="path64" /></clipPath><clipPath
       clipPathUnits="userSpaceOnUse"
       id="clipPath66"><path
         d="M 0,881.714 H 946.745 V 0 H 0 Z"
         transform="translate(-472.93481,-582.61692)"
         id="path66" /></clipPath><linearGradient
       x1="0"
       y1="0"
       x2="1"
       y2="0"
       gradientUnits="userSpaceOnUse"
       gradientTransform="matrix(62.933422,15.645635,15.645635,-62.933422,448.44125,532.65118)"
       spreadMethod="pad"
       id="linearGradient67"><stop
         style="stop-opacity:1;stop-color:#e88a0f"
         offset="0"
         id="stop66" /><stop
         style="stop-opacity:1;stop-color:#fcd006"
         offset="1"
         id="stop67" /></linearGradient><linearGradient
       x1="0"
       y1="0"
       x2="1"
       y2="0"
       gradientUnits="userSpaceOnUse"
       gradientTransform="matrix(62.312931,17.678825,17.678825,-62.312931,534.36108,542.88928)"
       spreadMethod="pad"
       id="linearGradient69"><stop
         style="stop-opacity:1;stop-color:#e88a0f"
         offset="0"
         id="stop68" /><stop
         style="stop-opacity:1;stop-color:#fcd006"
         offset="1"
         id="stop69" /></linearGradient><clipPath
       clipPathUnits="userSpaceOnUse"
       id="clipPath71"><path
         d="M 0,881.714 H 946.745 V 0 H 0 Z"
         transform="translate(-576.87731,-485.48561)"
         id="path71" /></clipPath><clipPath
       clipPathUnits="userSpaceOnUse"
       id="clipPath73"><path
         d="M 0,881.714 H 946.745 V 0 H 0 Z"
         transform="translate(-482.01931,-465.32681)"
         id="path73" /></clipPath><clipPath
       clipPathUnits="userSpaceOnUse"
       id="clipPath75"><path
         d="M 0,881.714 H 946.745 V 0 H 0 Z"
         transform="translate(-540.20911,-433.75071)"
         id="path75" /></clipPath><clipPath
       clipPathUnits="userSpaceOnUse"
       id="clipPath77"><path
         d="M 0,881.714 H 946.745 V 0 H 0 Z"
         transform="translate(-566.97391,-466.66181)"
         id="path77" /></clipPath><clipPath
       clipPathUnits="userSpaceOnUse"
       id="clipPath79"><path
         d="M 0,881.714 H 946.745 V 0 H 0 Z"
         transform="translate(-580.62211,-539.27202)"
         id="path79" /></clipPath><clipPath
       clipPathUnits="userSpaceOnUse"
       id="clipPath81"><path
         d="M 0,881.714 H 946.745 V 0 H 0 Z"
         transform="translate(-498.96081,-530.56452)"
         id="path81" /></clipPath><clipPath
       clipPathUnits="userSpaceOnUse"
       id="clipPath83"><path
         d="M 0,881.714 H 946.745 V 0 H 0 Z"
         transform="translate(-548.20921,-505.74891)"
         id="path83" /></clipPath><clipPath
       clipPathUnits="userSpaceOnUse"
       id="clipPath85"><path
         d="M 0,881.714 H 946.745 V 0 H 0 Z"
         transform="translate(-461.30571,-489.65281)"
         id="path85" /></clipPath><clipPath
       clipPathUnits="userSpaceOnUse"
       id="clipPath87"><path
         d="M 0,881.714 H 946.745 V 0 H 0 Z"
         transform="translate(-610.87301,-319.82861)"
         id="path87" /></clipPath><clipPath
       clipPathUnits="userSpaceOnUse"
       id="clipPath89"><path
         d="M 0,881.714 H 946.745 V 0 H 0 Z"
         transform="translate(-586.54582,-293.97941)"
         id="path89" /></clipPath><clipPath
       clipPathUnits="userSpaceOnUse"
       id="clipPath91"><path
         d="M 0,881.714 H 946.745 V 0 H 0 Z"
         transform="translate(-568.07671,-305.31101)"
         id="path91" /></clipPath><clipPath
       clipPathUnits="userSpaceOnUse"
       id="clipPath93"><path
         d="M 0,881.714 H 946.745 V 0 H 0 Z"
         transform="translate(-544.39702,-198.4149)"
         id="path93" /></clipPath><clipPath
       clipPathUnits="userSpaceOnUse"
       id="clipPath95"><path
         d="M 0,881.714 H 946.745 V 0 H 0 Z"
         transform="translate(-513.25201,-294.02951)"
         id="path95" /></clipPath><clipPath
       clipPathUnits="userSpaceOnUse"
       id="clipPath97"><path
         d="M 0,881.714 H 946.745 V 0 H 0 Z"
         transform="translate(-530.83841,-196.3542)"
         id="path97" /></clipPath><clipPath
       clipPathUnits="userSpaceOnUse"
       id="clipPath99"><path
         d="M 0,881.714 H 946.745 V 0 H 0 Z"
         transform="translate(-609.54242,-150.3194)"
         id="path99" /></clipPath><clipPath
       clipPathUnits="userSpaceOnUse"
       id="clipPath101"><path
         d="M 0,881.714 H 946.745 V 0 H 0 Z"
         transform="translate(-609.50092,-110.6375)"
         id="path101" /></clipPath><clipPath
       clipPathUnits="userSpaceOnUse"
       id="clipPath103"><path
         d="M 0,881.714 H 946.745 V 0 H 0 Z"
         transform="translate(-600.81851,-193.5746)"
         id="path103" /></clipPath><clipPath
       clipPathUnits="userSpaceOnUse"
       id="clipPath105"><path
         d="M 0,881.714 H 946.745 V 0 H 0 Z"
         transform="translate(-538.73881,-171.57041)"
         id="path105" /></clipPath><clipPath
       clipPathUnits="userSpaceOnUse"
       id="clipPath107"><path
         d="M 0,881.714 H 946.745 V 0 H 0 Z"
         transform="translate(-556.38871,-154.03661)"
         id="path107" /></clipPath><clipPath
       clipPathUnits="userSpaceOnUse"
       id="clipPath109"><path
         d="M 0,881.714 H 946.745 V 0 H 0 Z"
         transform="translate(-580.67212,-152.0262)"
         id="path109" /></clipPath><clipPath
       clipPathUnits="userSpaceOnUse"
       id="clipPath111"><path
         d="M 0,881.714 H 946.745 V 0 H 0 Z"
         transform="translate(-459.31891,-140.2188)"
         id="path111" /></clipPath><clipPath
       clipPathUnits="userSpaceOnUse"
       id="clipPath113"><path
         d="M 0,881.714 H 946.745 V 0 H 0 Z"
         transform="translate(-458.34111,-97.001527)"
         id="path113" /></clipPath><clipPath
       clipPathUnits="userSpaceOnUse"
       id="clipPath115"><path
         d="M 0,881.714 H 946.745 V 0 H 0 Z"
         transform="translate(-470.07071,-187.571)"
         id="path115" /></clipPath><clipPath
       clipPathUnits="userSpaceOnUse"
       id="clipPath117"><path
         d="M 0,881.714 H 946.745 V 0 H 0 Z"
         transform="translate(-536.97641,-161.5373)"
         id="path117" /></clipPath><clipPath
       clipPathUnits="userSpaceOnUse"
       id="clipPath119"><path
         d="M 0,881.714 H 946.745 V 0 H 0 Z"
         transform="translate(-517.30261,-142.8968)"
         id="path119" /></clipPath><clipPath
       clipPathUnits="userSpaceOnUse"
       id="clipPath121"><path
         d="M 0,881.714 H 946.745 V 0 H 0 Z"
         transform="translate(-490.80451,-141.3333)"
         id="path121" /></clipPath><clipPath
       clipPathUnits="userSpaceOnUse"
       id="clipPath123"><path
         d="M 0,881.714 H 946.745 V 0 H 0 Z"
         transform="translate(-595.99331,-238.82501)"
         id="path123" /></clipPath><clipPath
       clipPathUnits="userSpaceOnUse"
       id="clipPath125"><path
         d="M 0,881.714 H 946.745 V 0 H 0 Z"
         transform="translate(-512.47691,-234.8655)"
         id="path125" /></clipPath><clipPath
       clipPathUnits="userSpaceOnUse"
       id="clipPath127"><path
         d="M 0,881.714 H 946.745 V 0 H 0 Z"
         transform="translate(-532.03321,-282.47741)"
         id="path127" /></clipPath><clipPath
       clipPathUnits="userSpaceOnUse"
       id="clipPath129"><path
         d="M 0,881.714 H 946.745 V 0 H 0 Z"
         transform="translate(-551.54821,-307.49581)"
         id="path129" /></clipPath><clipPath
       clipPathUnits="userSpaceOnUse"
       id="clipPath131"><path
         d="M 0,881.714 H 946.745 V 0 H 0 Z"
         transform="translate(-329.59191,-348.62671)"
         id="path131" /></clipPath><clipPath
       clipPathUnits="userSpaceOnUse"
       id="clipPath133"><path
         d="M 0,881.714 H 946.745 V 0 H 0 Z"
         transform="translate(-270.44721,-275.1708)"
         id="path133" /></clipPath><clipPath
       clipPathUnits="userSpaceOnUse"
       id="clipPath135"><path
         d="M 0,881.714 H 946.745 V 0 H 0 Z"
         transform="translate(-321.43611,-275.48141)"
         id="path135" /></clipPath><clipPath
       clipPathUnits="userSpaceOnUse"
       id="clipPath137"><path
         d="M 0,881.714 H 946.745 V 0 H 0 Z"
         transform="translate(-313.16901,-225.7677)"
         id="path137" /></clipPath><clipPath
       clipPathUnits="userSpaceOnUse"
       id="clipPath139"><path
         d="M 0,881.714 H 946.745 V 0 H 0 Z"
         transform="translate(-313.45061,-275.4528)"
         id="path139" /></clipPath><clipPath
       clipPathUnits="userSpaceOnUse"
       id="clipPath141"><path
         d="M 0,881.714 H 946.745 V 0 H 0 Z"
         transform="translate(-320.56171,-362.02651)"
         id="path141" /></clipPath><clipPath
       clipPathUnits="userSpaceOnUse"
       id="clipPath143"><path
         d="M 0,881.714 H 946.745 V 0 H 0 Z"
         transform="translate(-285.83091,-222.3009)"
         id="path143" /></clipPath><clipPath
       clipPathUnits="userSpaceOnUse"
       id="clipPath145"><path
         d="M 0,881.714 H 946.745 V 0 H 0 Z"
         transform="translate(-776.63792,-600.32161)"
         id="path145" /></clipPath><clipPath
       clipPathUnits="userSpaceOnUse"
       id="clipPath147"><path
         d="M 0,881.714 H 946.745 V 0 H 0 Z"
         transform="translate(-303.69371,-396.04181)"
         id="path147" /></clipPath><clipPath
       clipPathUnits="userSpaceOnUse"
       id="clipPath149"><path
         d="M 0,881.714 H 946.745 V 0 H 0 Z"
         transform="translate(-326.95991,-422.95351)"
         id="path149" /></clipPath><clipPath
       clipPathUnits="userSpaceOnUse"
       id="clipPath151"><path
         d="M 0,881.714 H 946.745 V 0 H 0 Z"
         transform="translate(-290.42851,-372.41151)"
         id="path151" /></clipPath><clipPath
       clipPathUnits="userSpaceOnUse"
       id="clipPath153"><path
         d="M 0,881.714 H 946.745 V 0 H 0 Z"
         transform="translate(-627.12752,-747.04072)"
         id="path153" /></clipPath><clipPath
       clipPathUnits="userSpaceOnUse"
       id="clipPath155"><path
         d="M 0,881.714 H 946.745 V 0 H 0 Z"
         transform="translate(-692.89532,-659.46192)"
         id="path155" /></clipPath><clipPath
       clipPathUnits="userSpaceOnUse"
       id="clipPath157"><path
         d="M 0,881.714 H 946.745 V 0 H 0 Z"
         transform="translate(-656.24222,-718.01562)"
         id="path157" /></clipPath><clipPath
       clipPathUnits="userSpaceOnUse"
       id="clipPath159"><path
         d="M 0,881.714 H 946.745 V 0 H 0 Z"
         transform="translate(-640.06292,-738.30022)"
         id="path159" /></clipPath><clipPath
       clipPathUnits="userSpaceOnUse"
       id="clipPath161"><path
         d="M 0,881.714 H 946.745 V 0 H 0 Z"
         transform="translate(-673.51972,-696.35442)"
         id="path161" /></clipPath><clipPath
       clipPathUnits="userSpaceOnUse"
       id="clipPath163"><path
         d="M 0,881.714 H 946.745 V 0 H 0 Z"
         transform="translate(-662.83252,-709.75342)"
         id="path163" /></clipPath><clipPath
       clipPathUnits="userSpaceOnUse"
       id="clipPath165"><path
         d="M 0,881.714 H 946.745 V 0 H 0 Z"
         transform="translate(-680.95481,-687.03271)"
         id="path165" /></clipPath><clipPath
       clipPathUnits="userSpaceOnUse"
       id="clipPath167"><path
         d="M 0,881.714 H 946.745 V 0 H 0 Z"
         transform="translate(-645.87412,-731.01462)"
         id="path167" /></clipPath><clipPath
       clipPathUnits="userSpaceOnUse"
       id="clipPath169"><path
         d="M 0,881.714 H 946.745 V 0 H 0 Z"
         transform="translate(-706.50712,-623.64961)"
         id="path169" /></clipPath><clipPath
       clipPathUnits="userSpaceOnUse"
       id="clipPath171"><path
         d="M 0,881.714 H 946.745 V 0 H 0 Z"
         transform="translate(-803.3572,-543.36271)"
         id="path171" /></clipPath><clipPath
       clipPathUnits="userSpaceOnUse"
       id="clipPath173"><path
         d="M 0,881.714 H 946.745 V 0 H 0 Z"
         transform="translate(-360.52321,-725.25182)"
         id="path173" /></clipPath><clipPath
       clipPathUnits="userSpaceOnUse"
       id="clipPath175"><path
         d="M 0,881.714 H 946.745 V 0 H 0 Z"
         transform="translate(-833.74382,-603.47772)"
         id="path175" /></clipPath><clipPath
       clipPathUnits="userSpaceOnUse"
       id="clipPath177"><path
         d="M 0,881.714 H 946.745 V 0 H 0 Z"
         transform="translate(-362.34241,-212.5533)"
         id="path177" /></clipPath><clipPath
       clipPathUnits="userSpaceOnUse"
       id="clipPath179"><path
         d="M 0,881.714 H 946.745 V 0 H 0 Z"
         transform="translate(-176.8842,-508.41301)"
         id="path179" /></clipPath><clipPath
       clipPathUnits="userSpaceOnUse"
       id="clipPath181"><path
         d="M 0,881.714 H 946.745 V 0 H 0 Z"
         transform="translate(-727.57372,-723.63712)"
         id="path181" /></clipPath><clipPath
       clipPathUnits="userSpaceOnUse"
       id="clipPath183"><path
         d="M 0,881.714 H 946.745 V 0 H 0 Z"
         transform="translate(-332.45281,-567.61371)"
         id="path183" /></clipPath><clipPath
       clipPathUnits="userSpaceOnUse"
       id="clipPath185"><path
         d="M 0,881.714 H 946.745 V 0 H 0 Z"
         transform="translate(-259.67571,-646.24542)"
         id="path185" /></clipPath><clipPath
       clipPathUnits="userSpaceOnUse"
       id="clipPath187"><path
         d="M 0,881.714 H 946.745 V 0 H 0 Z"
         transform="translate(-475.07141,-681.06961)"
         id="path187" /></clipPath><clipPath
       clipPathUnits="userSpaceOnUse"
       id="clipPath189"><path
         d="M 0,881.714 H 946.745 V 0 H 0 Z"
         transform="translate(-692.91641,-327.74271)"
         id="path189" /></clipPath><clipPath
       clipPathUnits="userSpaceOnUse"
       id="clipPath191"><path
         d="M 0,881.714 H 946.745 V 0 H 0 Z"
         transform="translate(-113.7655,-385.18631)"
         id="path191" /></clipPath><clipPath
       clipPathUnits="userSpaceOnUse"
       id="clipPath193"><path
         d="M 0,881.714 H 946.745 V 0 H 0 Z"
         transform="translate(-757.98834,-467.50861)"
         id="path193" /></clipPath><clipPath
       clipPathUnits="userSpaceOnUse"
       id="clipPath195"><path
         d="M 0,881.714 H 946.745 V 0 H 0 Z"
         transform="translate(-599.49491,-658.94311)"
         id="path195" /></clipPath><clipPath
       clipPathUnits="userSpaceOnUse"
       id="clipPath197"><path
         d="M 0,881.714 H 946.745 V 0 H 0 Z"
         transform="translate(-241.64661,-593.02801)"
         id="path197" /></clipPath><clipPath
       clipPathUnits="userSpaceOnUse"
       id="clipPath199"><path
         d="M 0,881.714 H 946.745 V 0 H 0 Z"
         transform="translate(-848.77,-555.64981)"
         id="path199" /></clipPath><clipPath
       clipPathUnits="userSpaceOnUse"
       id="clipPath201"><path
         d="M 0,881.714 H 946.745 V 0 H 0 Z"
         transform="translate(-446.52001,-221.89241)"
         id="path201" /></clipPath><clipPath
       clipPathUnits="userSpaceOnUse"
       id="clipPath203"><path
         d="M 0,881.714 H 946.745 V 0 H 0 Z"
         transform="translate(-530.21551,-766.34132)"
         id="path203" /></clipPath><clipPath
       clipPathUnits="userSpaceOnUse"
       id="clipPath205"><path
         d="M 0,881.714 H 946.745 V 0 H 0 Z"
         transform="translate(-744.06392,-333.55591)"
         id="path205" /></clipPath><clipPath
       clipPathUnits="userSpaceOnUse"
       id="clipPath207"><path
         d="M 0,881.714 H 946.745 V 0 H 0 Z"
         transform="translate(-446.56161,-687.05791)"
         id="path207" /></clipPath><clipPath
       clipPathUnits="userSpaceOnUse"
       id="clipPath209"><path
         d="M 0,881.714 H 946.745 V 0 H 0 Z"
         transform="translate(-279.05101,-198.7379)"
         id="path209" /></clipPath></defs><g
     id="layer-MC0"
     inkscape:groupmode="layer"
     inkscape:label="paxton-as-pixi"
     transform="matrix(0.26458332,0,0,0.26458331,3.8544379e-6,0)"><path
       id="path1"
       d="m 0,0 c 0,-14.745 -74.892,-26.699 -167.277,-26.699 -92.384,0 -167.277,11.954 -167.277,26.699 0,14.745 74.893,26.699 167.277,26.699 C -74.892,26.699 0,14.745 0,0"
       style="display:inline;fill:#c6a618;fill-opacity:1;fill-rule:nonzero;stroke:none"
       transform="matrix(1.3333333,0,0,-1.3333333,925.09907,1022.768)"
       clip-path="url(#clipPath2)"
       inkscape:label="floor" /><path
       id="path4"
       d="M 454.744,789.616 C 421.11,771.824 404.84,749.952 343.318,751.177 v 0 c -73.766,1.469 -150.573,-45.71 -168.185,-121.191 v 0 C 156.696,550.97 124.493,487.676 75.314,433.257 v 0 C 31.6,384.885 46.712,318.527 94.284,298.437 v 0 c 36.595,-15.454 71.329,-49.965 73.525,-89.24 v 0 c 3.037,-54.301 109.364,-110.07 184.569,-72.817 v 0 c 78.7,38.985 144.64,48.777 243.288,12.337 v 0 c 75.703,-27.965 195.594,122.772 193.238,193.071 v 0 c -2.351,70.129 13.695,108.482 78.924,165.585 v 0 c 36.516,31.966 35.307,122.507 -17.661,143.331 v 0 c -80.253,31.548 -89.896,50.821 -121.236,117.778 v 0 c -20.091,42.924 -59.906,68.233 -116.711,68.231 v 0 c -43.109,-10e-4 -96.005,-14.579 -157.476,-47.097"
       style="display:inline;fill:url(#radialGradient4);stroke:none"
       inkscape:label="night-sky"
       transform="matrix(1.3333333,0,0,-1.3333333,0,1175.6187)" /><g
       id="g5"
       inkscape:label="wings"
       style="display:inline"><path
         id="path5"
         d="M 0,0 2.678,23.716 -19.891,6.885 -43.608,-43.99 l 0.754,-26.645 c -5.014,-24.583 -12.973,-45.597 -16.741,-56.945 -3.768,-11.347 7.4,-9.32 19.313,11.155 11.068,19.021 24.85,67.553 30.958,90.268 z"
         style="fill:#e8e9e9;fill-opacity:1;fill-rule:nonzero;stroke:none"
         transform="matrix(1.3333333,0,0,-1.3333333,361.2264,655.09867)"
         clip-path="url(#clipPath6)" /><path
         id="path7"
         d="m 0,0 c 0,0 -2.295,-14.918 -3.06,-24.864 -0.765,-9.946 2.677,-6.503 4.59,-4.973 1.913,1.53 17.596,22.569 17.596,22.569 0,0 0.383,-8.416 -0.765,-16.831 -1.147,-8.416 1.53,-9.181 1.53,-9.181 L 60.056,19.509 32.514,24.482 -8.798,42.46 -25.247,31.749 -39.782,-4.59 -55.961,-73.79 c -5.809,-24.407 -14.444,-45.153 -18.579,-56.372 -4.134,-11.219 7.094,-9.555 19.665,10.523 15.485,24.734 37.424,101.176 37.424,101.176 z"
         style="fill:#e8e9e9;fill-opacity:1;fill-rule:nonzero;stroke:none"
         transform="matrix(1.3333333,0,0,-1.3333333,352.04587,647.95827)"
         clip-path="url(#clipPath8)" /><path
         id="path9"
         d="m 0,0 c -13.247,-0.216 -33.835,6.734 -49.62,26.143 -9.282,11.413 -22.753,11.641 -38.173,-10.994 -11.532,-16.928 -21.195,-32.542 -32.142,-86.841 -6.693,-33.195 -17.103,-62.932 -35.331,-81.276 20.117,-1.891 43.359,20.896 56.221,77.26 12.667,55.506 25.462,74.86 33.598,79.649 3.452,2.834 7.257,3.556 13.778,-2.953 6.522,-6.509 37.187,-20.5 57.173,-13.14 z"
         style="fill:#e8e9e9;fill-opacity:1;fill-rule:nonzero;stroke:none"
         transform="matrix(1.3333333,0,0,-1.3333333,420.74307,608.2044)"
         clip-path="url(#clipPath10)" /><path
         id="path11"
         d="m 0,0 c -5.471,-21.976 -18.63,-72.044 -29.653,-91.758 -11.56,-20.675 -22.692,-22.894 -19.119,-11.483 3.574,11.41 11.171,32.558 15.764,57.222 L -18.361,4.59 3.73,40.165 10.041,39.591 4.303,8.033 Z"
         style="fill:#e8e9e9;fill-opacity:1;fill-rule:nonzero;stroke:none"
         transform="matrix(1.3333333,0,0,-1.3333333,376.52733,686.08307)"
         clip-path="url(#clipPath12)" /><path
         id="path13"
         d="M 0,0 C -0.438,-0.009 -0.845,0.073 -1.24,0.196 -4.163,1.107 -5.32,6.399 -1.563,31.452 -14.877,12.06 -19.796,6.655 -23.216,8.163 c -3.391,1.492 -2.441,8.771 2.861,31.608 -15.702,-18.053 -22.048,-22.865 -25.264,-20.839 -3.162,1.992 -9.051,10.153 16.729,42.536 l 0.019,-0.012 C -45.601,32.743 -43.089,25.409 -42.958,23.17 c 1.999,0.844 7.741,5.232 24,24.638 l 6.396,7.633 -2.376,-9.67 c -1.736,-7.062 -6.77,-27.555 -6.176,-32.842 2.951,2.128 9.883,11.362 20.647,27.512 L 5.58,49.512 3.738,38.768 C -0.287,15.285 -0.213,7.672 0.313,5.215 1.918,6.766 5.804,12.109 14.276,30.367 l 4.197,-1.948 C 7.273,4.286 2.943,0.063 0,0"
         style="fill:#aab0c2;fill-opacity:1;fill-rule:nonzero;stroke:none"
         transform="matrix(1.3333333,0,0,-1.3333333,378.61187,703.53693)"
         clip-path="url(#clipPath14)" /><path
         id="path15"
         d="m 0,0 c -2.059,-13.41 -6.207,-26.33 -10.778,-39.058 -4.411,-12.767 -8.805,-25.553 -13.986,-38.034 -0.001,0 -0.296,0.113 -0.296,0.113 4.261,12.8 8.057,25.748 11.874,38.687 3.57,13.046 7.497,25.922 12.882,38.377 C -0.304,0.085 0,0 0,0"
         style="fill:#aab0c2;fill-opacity:1;fill-rule:nonzero;stroke:none"
         transform="matrix(1.3333333,0,0,-1.3333333,328.78707,670.9664)"
         clip-path="url(#clipPath16)" /><path
         id="path17"
         d="m 0,0 c 3.287,10.607 6.055,21.377 8.93,32.103 2.609,10.844 5.59,21.506 10.032,31.794 0,0 0.307,-0.077 0.307,-0.077 C 19.018,61.015 18.575,58.249 18.05,55.509 16.599,47.257 14.036,39.305 11.355,31.392 9.637,26.1 7.895,20.816 6.107,15.547 4.254,10.299 2.448,5.031 0.295,-0.112 Z"
         style="fill:#aab0c2;fill-opacity:1;fill-rule:nonzero;stroke:none"
         transform="matrix(1.3333333,0,0,-1.3333333,323.49827,772.88507)"
         clip-path="url(#clipPath18)" /><path
         id="path19"
         d="m 0,0 c 4.692,14.752 7.783,29.845 10.982,44.978 4.768,20.148 10.097,40.578 20.672,58.626 2.545,4.329 7.079,10.001 10.639,11.946 3.031,2.755 7.517,3.28 11.045,1.07 2.279,-1.26 4.072,-3.058 5.861,-4.801 5.313,-4.376 11.789,-7.34 18.306,-9.923 11.686,-4.358 24.665,-7.495 37.022,-4.002 -12.138,-4.933 -25.859,-2.5 -37.982,1.313 -6.947,2.444 -13.907,5.206 -19.76,9.858 -2.368,2.146 -5.405,5.313 -8.728,4.995 -1.129,-0.096 -2.331,-0.942 -3.455,-1.816 -3.948,-2.48 -6.911,-6.789 -9.389,-10.812 C 32.642,97.14 30.411,92.579 28.389,87.919 24.385,78.54 21.083,68.83 18.132,59.051 12.063,39.445 8.146,18.961 0,0"
         style="fill:#aab0c2;fill-opacity:1;fill-rule:nonzero;stroke:none"
         transform="matrix(1.3333333,0,0,-1.3333333,275.37933,754.932)"
         clip-path="url(#clipPath20)" /><path
         id="path37"
         d="m 0,0 c 0,0 8.784,-71.877 4.596,-98.116 -3.4,-21.299 -12.22,-26.685 -12.743,-15.811 -0.523,10.874 -0.659,31.334 -4.467,53.858 l -2.727,35.177 z"
         style="fill:#e8e9e9;fill-opacity:1;fill-rule:nonzero;stroke:none"
         transform="matrix(1.3333333,0,0,-1.3333333,459.71587,644.86053)"
         clip-path="url(#clipPath38)" /><path
         id="path39"
         d="m 0,0 c 0,0 11.109,-71.555 7.774,-97.915 -2.708,-21.398 -11.349,-27.068 -12.224,-16.216 -0.875,10.851 -1.674,31.296 -6.21,53.685 l -1.525,49.04 z"
         style="fill:#e8e9e9;fill-opacity:1;fill-rule:nonzero;stroke:none"
         transform="matrix(1.3333333,0,0,-1.3333333,477.43987,640.9104)"
         clip-path="url(#clipPath40)" /></g><g
       id="g3"
       inkscape:label="left-arm"
       style="display:inline"
       transform="translate(-1.5748037e-6)"><path
         id="path21"
         d="M 0,0 C 6.885,6.885 16.64,17.214 19.509,23.525 L 52.406,-2.104 C 47.624,-12.623 34.045,-27.35 23.143,-38.252 Z"
         style="fill:#aab0c2;fill-opacity:1;fill-rule:nonzero;stroke:none"
         transform="matrix(1.3333333,0,0,-1.3333333,845.50133,531.16093)"
         clip-path="url(#clipPath22)" /><path
         id="path23"
         d="m 0,0 c -2.468,-4.608 -8.824,-4.721 -13.327,-3.74 -10.444,1.907 -27.231,15.435 -22.204,27.22 1.049,1.553 2.212,2.756 3.424,4.137 -0.732,-2.099 -2.246,-4.04 -2.36,-6.263 C -34.634,10.005 -9.948,-8.361 0,0"
         style="fill:#778293;fill-opacity:1;fill-rule:nonzero;stroke:none"
         transform="matrix(1.3333333,0,0,-1.3333333,903.71987,552.24173)"
         clip-path="url(#clipPath24)" /><path
         id="path25"
         d="m 0,0 c 5.128,-5.684 8.21,-5.281 1.17,-21.362 -7.04,-16.081 -30.616,-40.366 -44.273,-49.318 -10.337,-6.776 -27.869,-7.823 -41.745,5.376 -13.876,13.2 -17.032,21.706 -11.585,30.5 5.447,8.794 31.461,48.015 35.451,55.727 3.99,7.711 16.679,12.844 24.532,8.055 C -28.597,24.188 0,0 0,0"
         style="fill:#778293;fill-opacity:1;fill-rule:nonzero;stroke:none"
         transform="matrix(1.3333333,0,0,-1.3333333,996.6512,435.50133)"
         clip-path="url(#clipPath26)" /><path
         id="path27"
         d="M 0,0 C 4.059,5.807 16.435,4.164 27.642,-3.669 38.849,-11.502 44.643,-22.56 40.585,-28.367 36.526,-34.174 24.15,-32.532 12.943,-24.698 1.736,-16.865 -4.059,-5.807 0,0"
         style="fill:#080604;fill-opacity:1;fill-rule:nonzero;stroke:none"
         transform="matrix(1.3333333,0,0,-1.3333333,936.95453,402.9672)"
         clip-path="url(#clipPath28)" /><path
         id="path29"
         d="M 0,0 C -2.667,5.055 -2.279,10.497 0.866,12.156 4.011,13.816 8.722,11.063 11.389,6.009 14.055,0.954 13.668,-4.489 10.523,-6.148 7.378,-7.807 2.667,-5.054 0,0"
         style="fill:#566576;fill-opacity:1;fill-rule:nonzero;stroke:none"
         transform="matrix(1.3333333,0,0,-1.3333333,882.13853,504.51627)"
         clip-path="url(#clipPath30)" /><path
         id="path31"
         d="m 0,0 c -0.526,-3.873 -4.351,-9.228 -10.663,-12.097 -6.311,-2.869 -15.875,-21.804 -13.771,-29.263 2.104,-7.46 3.826,-14.728 15.492,-13.963 11.667,0.766 23.526,10.329 23.526,10.902 0,0.574 6.311,27.925 6.311,27.925 L 5.212,-1.195 Z"
         style="fill:#080604;fill-opacity:1;fill-rule:nonzero;stroke:none"
         transform="matrix(1.3333333,0,0,-1.3333333,1003.4592,350.244)"
         clip-path="url(#clipPath32)" /><path
         id="path33"
         d="M 0,0 -20.513,19.365 -30.315,19.174 -13.054,1.148 -2.725,-5.738 Z"
         style="fill:#aab0c2;fill-opacity:1;fill-rule:nonzero;stroke:none"
         transform="matrix(1.3333333,0,0,-1.3333333,1043.8792,375.80933)"
         clip-path="url(#clipPath34)" /><path
         id="path35"
         d="m 0,0 -13.341,18.744 c -23.333,-3.061 -38.634,-33.662 -31.366,-48.963 8.421,-17.73 24.864,-31.367 38.826,-34.619 0,0 -11.667,4.399 -13.58,19.7 C -21.374,-29.837 -9.946,-9.181 0,0"
         style="fill:#566576;fill-opacity:1;fill-rule:nonzero;stroke:none"
         transform="matrix(1.3333333,0,0,-1.3333333,992.2384,348.26773)"
         clip-path="url(#clipPath36)" /><path
         id="path144"
         d="m 0,0 c -1.562,-26.967 -24.752,-48.25 -43.504,-36.039 -15.389,10.02 -11.329,34.233 14.533,51.058"
         style="fill:none;stroke:#778293;stroke-width:12.637;stroke-linecap:butt;stroke-linejoin:miter;stroke-miterlimit:10;stroke-dasharray:none;stroke-opacity:1"
         transform="matrix(1.3333333,0,0,-1.3333333,1035.5172,375.18987)"
         clip-path="url(#clipPath145)" /></g><g
       id="g6"
       inkscape:label="body"
       style="display:inline"><path
         id="path41"
         d="m 0,0 c -31.608,-8.233 -156.929,-44.705 -156.929,-44.705 0,0 -24.778,-5.69 -33.864,-8.986 l -2.541,-1.521 -0.413,0.386 c -41.877,122.444 -91.219,231.337 -91.219,231.337 l -0.075,0.048 1.393,1.991 c 61.93,20.007 152.714,35.314 197.042,29.745 l 4.729,-0.432 C -81.877,207.863 -24.26,99.173 0,0"
         style="fill:#fab10b;fill-opacity:1;fill-rule:nonzero;stroke:none"
         transform="matrix(1.3333333,0,0,-1.3333333,898.7276,647.27013)"
         clip-path="url(#clipPath42)" /><path
         id="path43"
         d="m 0,0 51.123,71.371 30.74,44.163 0.075,-0.048 c 0,0 49.343,-108.893 91.22,-231.337 l 0.413,-0.386 c 0,0 0.899,0.7 0.471,-2.811 L 76.164,-224.507 C 73.852,-218.168 1.514,-3.44 0,0"
         style="fill:#fcd006;fill-opacity:1;fill-rule:nonzero;stroke:none"
         transform="matrix(1.3333333,0,0,-1.3333333,409.52147,565.90387)"
         clip-path="url(#clipPath44)" /><path
         id="path45"
         d="m 0,0 c 28.722,28.091 81.086,96.2 88.93,109.016 0.091,0.15 -0.107,0.305 -0.154,0.473 C 57.167,101.256 28.036,93.345 -6.715,83.526 l -96.141,-27.735 c 0.007,0.05 0.024,0.116 0.03,0.164 l -0.191,-0.213 -0.971,-0.298 c 0.057,-0.151 0.184,-0.279 0.348,-0.397 L -202.139,-54.09 C -154.912,-43.083 -35.047,-10.097 0,0"
         style="fill:#95461d;fill-opacity:1;fill-rule:nonzero;stroke:none"
         transform="matrix(1.3333333,0,0,-1.3333333,780.36013,793.25533)"
         clip-path="url(#clipPath46)" /><path
         id="path47"
         d="m 0,0 c 1.333,-4.485 0.151,-8.793 -2.64,-9.622 -2.791,-0.829 -6.133,2.135 -7.465,6.62 -1.333,4.484 -0.151,8.792 2.64,9.621 C -4.675,7.449 -1.332,4.485 0,0"
         style="fill:#e88a0f;fill-opacity:1;fill-rule:nonzero;stroke:none"
         transform="matrix(1.3333333,0,0,-1.3333333,623.78587,710.7208)"
         clip-path="url(#clipPath48)" /><path
         id="path49"
         d="m 0,0 c 1.332,-4.485 0.15,-8.793 -2.64,-9.622 -2.791,-0.829 -6.133,2.135 -7.466,6.62 -1.332,4.485 -0.15,8.793 2.641,9.622 C -4.675,7.449 -1.333,4.485 0,0"
         style="fill:#e88a0f;fill-opacity:1;fill-rule:nonzero;stroke:none"
         transform="matrix(1.3333333,0,0,-1.3333333,522.63667,450.3328)"
         clip-path="url(#clipPath50)" /><path
         id="path51"
         d="m 0,0 c 1.333,-4.485 0.15,-8.793 -2.64,-9.622 -2.791,-0.829 -6.133,2.135 -7.466,6.62 -1.332,4.485 -0.15,8.793 2.641,9.622 C -4.675,7.449 -1.332,4.485 0,0"
         style="fill:#e88a0f;fill-opacity:1;fill-rule:nonzero;stroke:none"
         transform="matrix(1.3333333,0,0,-1.3333333,442.3292,562.6296)"
         clip-path="url(#clipPath52)" /><path
         id="path53"
         d="m 0,0 c 1.332,-4.485 0.15,-8.793 -2.64,-9.622 -2.791,-0.829 -6.133,2.135 -7.466,6.62 -1.332,4.485 -0.15,8.793 2.641,9.622 C -4.675,7.448 -1.332,4.485 0,0"
         style="fill:#e88a0f;fill-opacity:1;fill-rule:nonzero;stroke:none"
         transform="matrix(1.3333333,0,0,-1.3333333,529.08707,817.02333)"
         clip-path="url(#clipPath54)" /><path
         id="path63"
         d="m 0,0 c 19.727,0 38.297,-19.491 41.457,-43.531 2.772,-21.154 -7.253,-38.784 -23.106,-42.742 3.935,2.757 -6.102,7.139 -6.102,7.139 0.661,2.967 12.336,10.719 11.9,14.139 -1.901,14.313 -13.78,25.911 -26.535,25.908 -12.756,-0.003 -21.565,-11.624 -19.664,-25.937 l -0.337,-0.196 c -3.862,6.378 -6.564,13.779 -7.6,21.661 C -33.155,-19.494 -19.727,0 0,0"
         style="fill:#ffffff;fill-opacity:1;fill-rule:nonzero;stroke:none"
         transform="matrix(1.3333333,0,0,-1.3333333,742.51787,384.728)"
         clip-path="url(#clipPath64)" /><path
         id="path65"
         d="m 0,0 c 19.752,-0.659 37.713,-20.777 40.106,-44.957 1.857,-18.823 -6.242,-34.554 -19.255,-40.266 2.489,4.446 -8.424,2.597 -9.008,8.375 -1.413,14.471 -1.219,35.601 -14.566,35.986 -12.83,0.351 -22.277,-10.158 -21.704,-23.795 -3.699,6.552 -6.181,14.096 -6.985,22.09 C -33.821,-18.419 -19.752,0.659 0,0"
         style="fill:#ffffff;fill-opacity:1;fill-rule:nonzero;stroke:none"
         transform="matrix(1.3333333,0,0,-1.3333333,630.57973,398.79613)"
         clip-path="url(#clipPath66)" /><path
         id="path67"
         d="m 442.394,556.976 c 4.998,11.702 15.118,19.317 27.56,18.953 v 0 c 19.212,-0.564 36.613,-19.855 38.854,-43.108 v 0 c 1.291,-13.445 -2.762,-25.261 -10.124,-32.724 v 0 c 10.261,7.165 16.287,21.242 14.697,37.654 v 0 c -2.354,24.213 -20.429,44.319 -40.361,44.93 v 0 c -0.309,0.009 -0.618,0.014 -0.925,0.014 v 0 c -14.492,10e-4 -25.829,-10.51 -29.701,-25.719"
         transform="matrix(1.3333333,0,0,-1.3333333,0,1175.6187)"
         style="fill:url(#linearGradient67);stroke:none" /><path
         id="path69"
         d="m 557.272,593.664 c -14.921,-0.04 -26.296,-11.054 -29.741,-26.702 v 0 c 4.611,11.858 14.466,19.805 26.898,19.854 v 0 c 19.197,0.078 37.19,-18.616 40.178,-41.774 v 0 c 1.724,-13.39 -1.94,-25.329 -9.047,-33.031 v 0 c 10.011,7.5 15.571,21.765 13.453,38.109 v 0 c -3.128,24.079 -21.776,43.543 -41.66,43.544 v 0 c -0.028,0 -0.053,0 -0.081,0"
         transform="matrix(1.3333333,0,0,-1.3333333,0,1175.6187)"
         style="fill:url(#linearGradient69);stroke:none" /><path
         id="path70"
         d="m 0,0 0.01,-0.023 c -0.076,-6.301 -5.631,-18.282 -5.631,-18.282 0,0 -0.399,-0.095 -1.11,-0.245 -0.237,-0.051 -0.474,-0.101 -0.776,-0.18 -5.829,-1.349 -28.712,-6.069 -37.602,-6.468 -10.689,-0.489 -32.064,11.816 -32.064,11.816 l 4.565,0.808 z"
         style="fill:#ffffff;fill-opacity:1;fill-rule:nonzero;stroke:none"
         transform="matrix(1.3333333,0,0,-1.3333333,769.16973,528.30453)"
         clip-path="url(#clipPath71)" /><path
         id="path72"
         d="M 0,0 C 5.669,8.434 16.658,16.401 27.23,15.17 18.265,9.582 10.2,3.223 0,0"
         style="fill:#95461d;fill-opacity:1;fill-rule:nonzero;stroke:none"
         transform="matrix(1.3333333,0,0,-1.3333333,642.6924,555.18293)"
         clip-path="url(#clipPath73)" /><path
         id="path74"
         d="M 0,0 C 9.096,-0.74 15.736,-0.126 24.303,1.961 19.735,-6.492 5.93,-7.632 0,0"
         style="fill:#95461d;fill-opacity:1;fill-rule:nonzero;stroke:none"
         transform="matrix(1.3333333,0,0,-1.3333333,720.2788,597.2844)"
         clip-path="url(#clipPath75)" /><path
         id="path76"
         d="M 0,0 C -8.155,-1.863 -26.096,-5.603 -33.568,-6.043 -44.652,-6.705 -67.172,5.534 -67.172,5.534 l -6.023,-1.225 c 0.544,-11.807 30.212,-36.927 63.677,-24.5 C 6.208,-15.566 7.637,8.252 7.637,8.252 6.533,4.033 2.783,1.414 0,0"
         style="fill:#080604;fill-opacity:1;fill-rule:nonzero;stroke:none"
         transform="matrix(1.3333333,0,0,-1.3333333,755.9652,553.40293)"
         clip-path="url(#clipPath77)" /><path
         id="path78"
         d="m 0,0 c -3.763,15.268 -16.97,25.143 -29.498,22.055 -12.528,-3.088 -19.634,-17.968 -15.871,-33.237 0.268,-1.086 0.588,-2.141 0.948,-3.17 4.947,-7.74 11.852,-14.479 20.928,-18.547 l -0.733,-0.553 c 2.745,-0.513 5.566,-0.472 8.355,0.215 C -3.343,-30.149 3.763,-15.268 0,0"
         style="fill:#080604;fill-opacity:1;fill-rule:nonzero;stroke:none"
         transform="matrix(1.3333333,0,0,-1.3333333,774.1628,456.58933)"
         clip-path="url(#clipPath79)" /><path
         id="path80"
         d="m 0,0 c -4.511,15.714 -19.397,25.229 -33.249,21.253 -13.128,-3.769 -20.608,-18.302 -17.515,-33.187 5.393,-10.205 13.945,-20.338 26.438,-24.594 2.461,-0.104 4.953,0.169 7.413,0.875 C -3.061,-31.676 4.511,-15.714 0,0"
         style="fill:#080604;fill-opacity:1;fill-rule:nonzero;stroke:none"
         transform="matrix(1.3333333,0,0,-1.3333333,665.28107,468.19933)"
         clip-path="url(#clipPath81)" /><path
         id="path82"
         d="M 0,0 C 0,0 36.179,12.759 45.6,4.323 L 17.42,-9.478 Z"
         style="fill:#fab10b;fill-opacity:1;fill-rule:nonzero;stroke:none"
         transform="matrix(1.3333333,0,0,-1.3333333,730.9456,501.2868)"
         clip-path="url(#clipPath83)" /><path
         id="path84"
         d="M 0,0 C 0,0 34.186,17.427 44.586,10.285 L 18.452,-7.126 Z"
         style="fill:#fab10b;fill-opacity:1;fill-rule:nonzero;stroke:none"
         transform="matrix(1.3333333,0,0,-1.3333333,615.07427,522.74827)"
         clip-path="url(#clipPath85)" /></g><g
       id="g7"
       inkscape:label="legs"
       style="display:inline"><path
         id="path86"
         d="m 0,0 -3.581,13.839 c -1.877,7.255 -9.114,11.763 -16.453,10.247 L -123.414,2.37 c -5.326,-1.1 -10.083,-4.066 -13.415,-8.364 l -13.936,-17.979 7.429,-25.196 22.387,17.452 111.339,26.722 z"
         style="fill:#080604;fill-opacity:1;fill-rule:nonzero;stroke:none"
         transform="matrix(1.3333333,0,0,-1.3333333,814.49733,749.18053)"
         clip-path="url(#clipPath87)" /><path
         id="path88"
         d="m 0,0 24.327,25.849 -124.998,-26.37 -18.338,-22.798 z"
         style="fill:#566576;fill-opacity:1;fill-rule:nonzero;stroke:none"
         transform="matrix(1.3333333,0,0,-1.3333333,782.06107,783.64613)"
         clip-path="url(#clipPath89)" /><path
         id="path90"
         d="m 0,0 25.975,5.296 -4.786,-87.587 -24.431,-0.182 -9.526,22.227 z"
         style="fill:#aab0c2;fill-opacity:1;fill-rule:nonzero;stroke:none"
         transform="matrix(1.3333333,0,0,-1.3333333,757.4356,768.53733)"
         clip-path="url(#clipPath91)" /><path
         id="path92"
         d="m 0,0 2.473,98.012 21.281,8.881 -3.317,-82.47 z"
         style="fill:#080604;fill-opacity:1;fill-rule:nonzero;stroke:none"
         transform="matrix(1.3333333,0,0,-1.3333333,725.86267,911.06547)"
         clip-path="url(#clipPath93)" /><path
         id="path94"
         d="m 0,0 -24.867,-5.2 -2.849,-60.975 24.308,-2.453 11.552,21.244 z"
         style="fill:#aab0c2;fill-opacity:1;fill-rule:nonzero;stroke:none"
         transform="matrix(1.3333333,0,0,-1.3333333,684.336,783.57933)"
         clip-path="url(#clipPath95)" /><path
         id="path96"
         d="M 0,0 3.64,100.317 -17.586,97.675 -20.994,29.047 Z"
         style="fill:#080604;fill-opacity:1;fill-rule:nonzero;stroke:none"
         transform="matrix(1.3333333,0,0,-1.3333333,707.78453,913.81307)"
         clip-path="url(#clipPath97)" /><path
         id="path98"
         d="m 0,0 c 17.668,-16.03 26.561,-27.688 24.077,-36.91 -2.485,-9.223 -22.809,-10.811 -42.986,-6.376 -22.217,4.882 -51.636,18.226 -54.392,20.859 -2.756,2.632 -3.382,6.392 1.859,12.982 5.24,6.59 30.518,9.325 30.518,9.325 l 21.76,15.056 15.224,-5.582 z"
         style="fill:#080604;fill-opacity:1;fill-rule:nonzero;stroke:none"
         transform="matrix(1.3333333,0,0,-1.3333333,812.7232,975.1928)"
         clip-path="url(#clipPath99)" /><path
         id="path100"
         d="m 0,0 c -6.17,-0.141 -12.627,0.535 -18.606,2.112 -16.181,4.269 -39.715,12.764 -56.47,21.573 0.34,1.302 1.029,2.776 2.148,4.458 16.403,-8.656 39.62,-17.037 55.584,-21.248 15.721,-4.147 32.302,-1.309 38.65,3.699 0.769,0.606 1.357,1.221 1.783,1.841 0.812,-1.969 1.283,-3.84 1.402,-5.623 C 24.449,6.778 24.412,6.744 24.369,6.711 19.131,2.579 9.939,0.228 0,0"
         style="fill:#ffffff;fill-opacity:1;fill-rule:nonzero;stroke:none"
         transform="matrix(1.3333333,0,0,-1.3333333,812.66787,1028.102)"
         clip-path="url(#clipPath101)" /><path
         id="path102"
         d="m 0,0 8.508,-43.15 c -3.057,1.523 -6.094,3.056 -8.932,4.546 -12.169,6.399 -20.027,-4.04 -25.858,-8.762 -1.741,31.22 -3.842,81.665 -3.842,81.665 l 0.424,1.736 c 0.498,-0.084 0.877,-0.182 1.166,-0.252 -0.009,-0.03 0.03,-0.009 0.03,-0.009 3.942,-1.952 8.601,-2.06 12.617,0.101 1.481,0.798 2.758,1.837 3.781,3.066 2.436,-0.323 6.296,-5.814 6.296,-5.814 z"
         style="fill:#aab0c2;fill-opacity:1;fill-rule:nonzero;stroke:none"
         transform="matrix(1.3333333,0,0,-1.3333333,801.09133,917.5192)"
         clip-path="url(#clipPath103)" /><path
         id="path104"
         d="m 0,0 c 0.619,4.456 1.293,3.774 1.989,8.321 0.968,6.329 1.989,12.561 2.997,18.257 1.937,10.697 3.932,19.463 5.714,23.113 2.145,4.423 5.562,6.764 9.093,7.91 4.905,1.584 10.056,0.936 12.587,0.438 l -0.424,-1.736 c 0,0 2.101,-50.445 3.842,-81.664 -1.005,-0.843 -1.966,-1.486 -2.876,-1.85 -6.071,-2.362 -33.65,-7.876 -33.65,-7.876 0,0 -1.705,0.692 -3.851,-0.413 0.134,1.153 1.199,10.199 2.77,22.182 C -1.25,-9.17 -0.662,-4.656 0,0"
         style="fill:#778293;fill-opacity:1;fill-rule:nonzero;stroke:none"
         transform="matrix(1.3333333,0,0,-1.3333333,718.3184,946.85813)"
         clip-path="url(#clipPath105)" /><path
         id="path106"
         d="m 0,0 c 0.519,-4.156 -1.157,-7.788 -3.743,-8.11 -2.586,-0.323 -5.103,2.784 -5.622,6.94 -0.519,4.157 1.156,7.788 3.742,8.111 C -3.036,7.264 -0.519,4.156 0,0"
         style="fill:#aab0c2;fill-opacity:1;fill-rule:nonzero;stroke:none"
         transform="matrix(1.3333333,0,0,-1.3333333,741.8516,970.23653)"
         clip-path="url(#clipPath107)" /><path
         id="path108"
         d="m 0,0 c 0,0 16.562,27.372 28.87,-1.707 0,0 -6.56,4.065 -13.297,5.698 C 10.534,5.213 9.753,5.056 0,0"
         style="fill:#566576;fill-opacity:1;fill-rule:nonzero;stroke:none"
         transform="matrix(1.3333333,0,0,-1.3333333,774.22947,972.91707)"
         clip-path="url(#clipPath109)" /><path
         id="path110"
         d="m 0,0 c -19.655,-17.003 -29.641,-29.469 -27.173,-39.577 2.468,-10.108 24.562,-12.361 46.65,-8.052 24.322,4.745 56.705,18.519 59.775,21.315 3.069,2.796 3.847,6.874 -1.69,14.186 -5.538,7.312 -32.996,10.943 -32.996,10.943 L 21.256,15.772 4.532,10.085 Z"
         style="fill:#080604;fill-opacity:1;fill-rule:nonzero;stroke:none"
         transform="matrix(1.3333333,0,0,-1.3333333,612.4252,988.66027)"
         clip-path="url(#clipPath111)" /><path
         id="path112"
         d="m 0,0 c 6.716,-0.313 13.766,0.257 20.317,1.821 17.733,4.232 43.582,12.876 62.057,22.038 -0.337,1.427 -1.05,3.049 -2.225,4.91 C 62.062,19.765 36.561,11.236 19.066,7.062 1.839,2.951 -16.147,6.469 -22.931,12.086 c -0.821,0.681 -1.446,1.366 -1.894,2.052 -0.935,-2.124 -1.496,-4.149 -1.671,-6.088 0.044,-0.038 0.084,-0.076 0.129,-0.113 C -20.769,3.301 -10.819,0.504 0,0"
         style="fill:#ffffff;fill-opacity:1;fill-rule:nonzero;stroke:none"
         transform="matrix(1.3333333,0,0,-1.3333333,611.12147,1046.2833)"
         clip-path="url(#clipPath113)" /><path
         id="path114"
         d="m 0,0 -10.514,-47.243 c 3.368,1.579 6.716,3.171 9.845,4.72 13.417,6.656 21.706,-4.915 27.935,-10.208 2.7,33.955 6.425,89.308 6.425,89.308 l -0.417,1.901 c -0.544,-0.078 -0.96,-0.175 -1.277,-0.244 0.01,-0.033 -0.032,-0.009 -0.032,-0.009 -4.344,-2.024 -9.42,-2.021 -13.738,0.436 -1.593,0.907 -2.956,2.071 -4.039,3.436 -2.662,-0.289 -7.007,-6.169 -7.007,-6.169 z"
         style="fill:#aab0c2;fill-opacity:1;fill-rule:nonzero;stroke:none"
         transform="matrix(1.3333333,0,0,-1.3333333,626.76093,925.524)"
         clip-path="url(#clipPath115)" /><path
         id="path116"
         d="m 0,0 c -0.559,4.869 -1.175,9.882 -1.815,14.852 -0.892,6.918 -1.844,8.462 -2.794,14.691 -1.834,11.699 -3.78,21.298 -5.627,25.318 -2.222,4.873 -5.883,7.511 -9.699,8.85 -5.301,1.851 -10.927,1.279 -13.696,0.801 l 0.416,-1.902 c 0,0 -3.724,-55.353 -6.425,-89.307 1.073,-0.944 2.103,-1.669 3.085,-2.089 6.55,-2.728 36.444,-9.445 36.444,-9.445 0,0 1.874,0.709 4.183,-0.549 -0.116,1.259 -1.043,11.138 -2.446,24.23 C 1.125,-10.019 0.601,-5.087 0,0"
         style="fill:#778293;fill-opacity:1;fill-rule:nonzero;stroke:none"
         transform="matrix(1.3333333,0,0,-1.3333333,715.96853,960.2356)"
         clip-path="url(#clipPath117)" /><path
         id="path118"
         d="m 0,0 c -0.672,-4.513 1.059,-8.511 3.867,-8.929 2.808,-0.419 5.63,2.901 6.302,7.414 C 10.842,2.998 9.11,6.995 6.302,7.414 3.494,7.832 0.672,4.513 0,0"
         style="fill:#aab0c2;fill-opacity:1;fill-rule:nonzero;stroke:none"
         transform="matrix(1.3333333,0,0,-1.3333333,689.7368,985.0896)"
         clip-path="url(#clipPath119)" /><path
         id="path120"
         d="m 0,0 c 0,0 -17.331,30.237 -31.486,-1.115 0,0 7.25,4.258 14.629,5.863 C -11.338,5.949 -10.492,5.758 0,0"
         style="fill:#566576;fill-opacity:1;fill-rule:nonzero;stroke:none"
         transform="matrix(1.3333333,0,0,-1.3333333,654.406,987.17427)"
         clip-path="url(#clipPath121)" /><path
         id="path122"
         d="m 0,0 c 0.817,-11.89 -6.079,-22.047 -15.402,-22.688 -9.322,-0.64 -17.542,8.479 -18.359,20.369 -0.817,11.889 6.079,22.047 15.401,22.687 C -9.037,21.009 -0.817,11.89 0,0"
         style="fill:#080604;fill-opacity:1;fill-rule:nonzero;stroke:none"
         transform="matrix(1.3333333,0,0,-1.3333333,794.65773,857.18533)"
         clip-path="url(#clipPath123)" /><path
         id="path124"
         d="m 0,0 c -1.864,-11.771 -10.818,-20.135 -19.999,-18.681 -9.181,1.454 -15.112,12.175 -13.248,23.946 1.864,11.771 10.818,20.134 19.998,18.681 C -4.068,22.492 1.864,11.771 0,0"
         style="fill:#080604;fill-opacity:1;fill-rule:nonzero;stroke:none"
         transform="matrix(1.3333333,0,0,-1.3333333,683.30253,862.46467)"
         clip-path="url(#clipPath125)" /><path
         id="path126"
         d="M 0,0 19.76,26.004"
         style="fill:none;stroke:#080604;stroke-width:2.194;stroke-linecap:butt;stroke-linejoin:miter;stroke-miterlimit:10;stroke-dasharray:none;stroke-opacity:1"
         transform="matrix(1.3333333,0,0,-1.3333333,709.3776,798.98213)"
         clip-path="url(#clipPath127)" /><path
         id="path128"
         d="M 0,0 -6.803,27.124"
         style="fill:none;stroke:#566576;stroke-width:2.194;stroke-linecap:butt;stroke-linejoin:miter;stroke-miterlimit:10;stroke-dasharray:none;stroke-opacity:1"
         transform="matrix(1.3333333,0,0,-1.3333333,735.3976,765.62427)"
         clip-path="url(#clipPath129)" /></g><g
       id="g4"
       inkscape:label="right-arm"
       style="display:inline"><path
         id="path55"
         d="m 0,0 c 0.023,0.01 0.078,0.007 0.1,0.017 14.256,3.706 32.789,-10.362 42.28,-31.933 9.6,-21.821 1.917,-48.572 -11.958,-54.677 0,0 -12.749,-8.851 -25.806,-7.544 l 0.013,0.033 c 4.033,0.045 7.773,1.123 10.97,3.313 12.711,8.754 11.771,32.197 -2.097,52.356 -13.371,19.46 -36.107,28.828 -49.108,21.594 l -2.509,-1.053 C -33.812,-12.708 -15.632,-2.42 0,0"
         style="fill:#566576;fill-opacity:1;fill-rule:nonzero;stroke:none"
         transform="matrix(1.3333333,0,0,-1.3333333,478.21053,546.43107)"
         clip-path="url(#clipPath56)" /><path
         id="path57"
         d="m 0,0 c 13.868,-20.159 14.807,-43.603 2.097,-52.356 -3.197,-2.19 -6.938,-3.268 -10.971,-3.314 l -0.009,0.023 c -2.627,-0.048 -5.375,0.364 -8.192,1.178 l -8.347,3.19 c 2.845,2.684 5.521,5.077 7.939,7.194 l 4.925,-0.508 c 2.08,0.186 4.015,0.822 5.677,1.958 3.439,2.377 5.237,6.519 5.464,11.59 0.366,7.213 -2.455,16.265 -8.231,24.666 -3.09,4.503 -6.834,8.286 -10.756,11.181 -8.549,6.289 -17.979,8.381 -23.686,4.465 -5.478,-3.761 -6.122,-12.123 -3.106,-21.495 -2.006,-1.828 -4.153,-3.826 -6.395,-5.974 -5.397,12.512 -6.544,24.759 -2.248,32.864 1.272,2.451 3.045,4.5 5.348,6.081 0.436,0.3 0.904,0.587 1.382,0.851 C -36.108,28.827 -13.371,19.46 0,0"
         style="fill:#778293;fill-opacity:1;fill-rule:nonzero;stroke:none"
         transform="matrix(1.3333333,0,0,-1.3333333,496.2136,597.67773)"
         clip-path="url(#clipPath58)" /><path
         id="path59"
         d="m 0,0 0.188,0.002 c -0.227,-5.072 -2.025,-9.213 -5.464,-11.591 -1.661,-1.136 -3.597,-1.771 -5.677,-1.957 l -4.925,0.508 c 1.449,1.313 2.824,2.486 4.096,3.585 C -4.338,-3.097 0,0 0,0"
         style="fill:#080604;fill-opacity:1;fill-rule:nonzero;stroke:none"
         transform="matrix(1.3333333,0,0,-1.3333333,494.07347,639.0732)"
         clip-path="url(#clipPath60)" /><path
         id="path61"
         d="m 0,0 c -1.907,-1.623 -4,-3.435 -6.237,-5.473 -3.016,9.372 -2.372,17.733 3.106,21.494 5.462,3.748 14.335,1.993 22.581,-3.678 0.37,-0.255 0.738,-0.517 1.105,-0.787 L 20.424,11.364 C 16.09,12.618 11.421,9.105 11.421,9.105 11.421,9.105 6.957,5.925 0,0"
         style="fill:#080604;fill-opacity:1;fill-rule:nonzero;stroke:none"
         transform="matrix(1.3333333,0,0,-1.3333333,441.60187,606.6836)"
         clip-path="url(#clipPath62)" /><path
         id="path130"
         d="m 0,0 c 6.585,26.966 26.635,43.943 41.151,53.784 0.624,9.203 -5.276,26.62 -18.986,35.847 -2.316,0.354 -5.754,0.558 -12.329,-4.69 C 3.261,79.693 -7.06,71.024 -11.023,66.627 -14.986,62.229 -41.033,34.007 -43.102,4.603 l 32.851,-1.986 z"
         style="fill:#aab0c2;fill-opacity:1;fill-rule:nonzero;stroke:none"
         transform="matrix(1.3333333,0,0,-1.3333333,439.45587,710.78307)"
         clip-path="url(#clipPath131)" /><path
         id="path132"
         d="M 0,0 C -7.238,2.493 -9.74,0.649 -11.36,18.129 -12.981,35.608 -4.1,68.268 3.52,82.711 9.287,93.643 24.125,103.042 42.655,98.206 61.185,93.369 68.062,87.452 67.551,77.12 67.039,66.789 63.252,19.877 63.491,11.198 63.731,2.518 55.111,-8.113 45.92,-7.722 36.73,-7.331 0,0 0,0"
         style="fill:#778293;fill-opacity:1;fill-rule:nonzero;stroke:none"
         transform="matrix(1.3333333,0,0,-1.3333333,360.59627,808.72427)"
         clip-path="url(#clipPath133)" /><path
         id="path134"
         d="m 0,0 c -0.742,-7.046 -12.367,-11.597 -25.966,-10.164 -13.598,1.432 -24.02,8.305 -23.277,15.351 0.742,7.046 12.367,11.597 25.965,10.165 C -9.68,13.919 0.742,7.046 0,0"
         style="fill:#080604;fill-opacity:1;fill-rule:nonzero;stroke:none"
         transform="matrix(1.3333333,0,0,-1.3333333,428.58147,808.31013)"
         clip-path="url(#clipPath135)" /><path
         id="path136"
         d="m 0,0 -28.741,14.711 c 0,0 -8.781,15.686 2.332,22.592 11.113,6.907 29.774,8.788 34.418,1.76 C 12.654,32.035 10.71,9.93 10.71,9.93 Z"
         style="fill:#080604;fill-opacity:1;fill-rule:nonzero;stroke:none"
         transform="matrix(1.3333333,0,0,-1.3333333,417.55867,874.59507)"
         clip-path="url(#clipPath137)" /><path
         id="path138"
         d="m 0,0 c -37.781,13.788 -49.844,10.636 -60.518,-6.703 -7.537,-12.245 -5.108,-30.233 1.529,-34.779 l 25.448,-14.027 1.531,1.762 3.097,38.522 c 0,0 11.553,7.438 12.945,7.868 C -14.577,-6.927 0,0 0,0"
         style="fill:#aab0c2;fill-opacity:1;fill-rule:nonzero;stroke:none"
         transform="matrix(1.3333333,0,0,-1.3333333,417.93413,808.34827)"
         clip-path="url(#clipPath139)" /><path
         id="path140"
         d="m 0,0 c 4.78,-3.133 7.074,-8.084 5.124,-11.058 -1.949,-2.973 -7.404,-2.844 -12.183,0.289 -4.78,3.133 -7.074,8.084 -5.125,11.057 C -10.234,3.262 -4.779,3.133 0,0"
         style="fill:#566576;fill-opacity:1;fill-rule:nonzero;stroke:none"
         transform="matrix(1.3333333,0,0,-1.3333333,427.4156,692.91667)"
         clip-path="url(#clipPath141)" /><path
         id="path142"
         d="M 0,0 C -11.261,24.553 -0.796,49.928 21.492,47.932 39.783,46.293 47.59,27.297 32.631,0.313"
         style="fill:none;stroke:#778293;stroke-width:12.637;stroke-linecap:butt;stroke-linejoin:miter;stroke-miterlimit:10;stroke-dasharray:none;stroke-opacity:1"
         transform="matrix(1.3333333,0,0,-1.3333333,381.10787,879.21747)"
         clip-path="url(#clipPath143)" /><path
         id="path146"
         d="m 0,0 c 2.058,4.937 8.52,5.681 13.204,5.128 10.825,-0.91 29.261,-13.027 25.307,-25.527 -0.915,-1.686 -1.981,-3.026 -3.078,-4.553 0.537,2.211 1.888,4.337 1.783,6.613 C 36.264,-6.763 9.305,9.5 0,0"
         style="fill:#778293;fill-opacity:1;fill-rule:nonzero;stroke:none"
         transform="matrix(1.3333333,0,0,-1.3333333,404.92493,647.56293)"
         clip-path="url(#clipPath147)" /><path
         id="path148"
         d="m 0,0 c 2.799,4.656 9.403,4.446 14.027,3.196 10.743,-2.518 27.472,-17.425 21.647,-29.4 -1.169,-1.559 -2.439,-2.747 -3.768,-4.118 0.868,2.141 2.54,4.078 2.773,6.38 C 35.437,-12.169 10.758,8.167 0,0"
         style="fill:#778293;fill-opacity:1;fill-rule:nonzero;stroke:none"
         transform="matrix(1.3333333,0,0,-1.3333333,435.94653,611.68067)"
         clip-path="url(#clipPath149)" /><path
         id="path150"
         d="M 0,0 C 5.14,15.996 15.298,31.947 28.14,42.842 17.932,29.39 8.526,14.607 0,0"
         style="fill:#778293;fill-opacity:1;fill-rule:nonzero;stroke:none"
         transform="matrix(1.3333333,0,0,-1.3333333,387.238,679.07)"
         clip-path="url(#clipPath151)" /></g><g
       id="g2"
       inkscape:label="wand"
       style="display:inline"><path
         id="path152"
         d="m 0,0 c 2.682,2.037 5.58,0.557 6.785,-1.029 l 0.393,-0.493 14.805,1.943 c 1.849,0.243 2.546,2.554 1.139,3.779 L 7.625,17.69 11.377,37.891 c 0.341,1.834 -1.642,3.211 -3.242,2.252 l -17.619,-10.57 -18.052,9.811 c -1.639,0.89 -3.562,-0.57 -3.144,-2.388 l 4.609,-20.023 -14.91,-14.137 c -1.353,-1.284 -0.558,-3.564 1.3,-3.727 l 20.467,-1.805 8.838,-18.548 c 0.802,-1.684 3.216,-1.633 3.946,0.084 l 5.916,13.912 -0.315,0.436 C -2.033,-5.226 -2.682,-2.037 0,0"
         style="fill:#fcd006;fill-opacity:1;fill-rule:nonzero;stroke:none"
         transform="matrix(1.3333333,0,0,-1.3333333,836.17,179.5644)"
         clip-path="url(#clipPath153)" /><path
         id="path154"
         d="m 0,0 0.701,0.532 c 1.446,1.099 4.015,2.574 6.432,3.126 l -7.655,9.597 c -0.021,-0.02 -0.04,-0.039 -0.061,-0.058 l -5.737,7.255 c 0.011,0.011 0.021,0.021 0.032,0.032 l -5.652,7.087 c -1.687,-0.991 -3.469,-2.168 -5.328,-3.58 -1.97,-1.496 -3.661,-2.98 -5.125,-4.414 L -4.583,-5.076 C -3.38,-3 -1.384,-1.051 0,0"
         style="fill:#778293;fill-opacity:1;fill-rule:nonzero;stroke:none"
         transform="matrix(1.3333333,0,0,-1.3333333,923.8604,296.33613)"
         clip-path="url(#clipPath155)" /><path
         id="path156"
         d="M 0,0 -2.001,2.51 C -2.021,2.492 -2.037,2.474 -2.056,2.456 l -4.131,5.212 c 0.014,0.014 0.025,0.027 0.039,0.04 l -4.22,5.291 c -1.334,-0.772 -2.75,-1.697 -4.231,-2.822 -1.586,-1.204 -2.934,-2.399 -4.087,-3.548 l 9.73,-13.469 c 1.339,1.229 2.818,2.47 4.46,3.717 C -2.954,-1.951 -1.455,-0.918 0,0"
         style="fill:#778293;fill-opacity:1;fill-rule:nonzero;stroke:none"
         transform="matrix(1.3333333,0,0,-1.3333333,874.9896,218.26453)"
         clip-path="url(#clipPath157)" /><path
         id="path158"
         d="m 0,0 -5.757,7.218 -0.394,0.493 c -1.204,1.586 -4.102,3.067 -6.784,1.029 -2.682,-2.037 -2.034,-5.226 -0.829,-6.812 l 0.315,-0.436 5.478,-7.583 c 1.188,1.098 2.507,2.208 3.976,3.324 C -2.623,-1.725 -1.292,-0.81 0,0"
         style="fill:#778293;fill-opacity:1;fill-rule:nonzero;stroke:none"
         transform="matrix(1.3333333,0,0,-1.3333333,853.4172,191.2184)"
         clip-path="url(#clipPath159)" /><path
         id="path160"
         d="M 0,0 -0.856,1.074 C -0.87,1.061 -0.882,1.048 -0.896,1.035 l -4.879,6.202 c 0,0 0.001,0.001 0.002,0.001 l -4.914,6.161 c -1.505,-0.878 -3.098,-1.924 -4.762,-3.188 -1.771,-1.346 -3.285,-2.68 -4.588,-3.967 L -10.008,-7.64 c 1.5,1.368 3.149,2.749 4.976,4.137 C -3.307,-2.193 -1.63,-1.033 0,0"
         style="fill:#778293;fill-opacity:1;fill-rule:nonzero;stroke:none"
         transform="matrix(1.3333333,0,0,-1.3333333,898.02627,247.14613)"
         clip-path="url(#clipPath161)" /><path
         id="path162"
         d="m 0,0 c 5.677,3.312 10.022,4.084 11.484,3.772 -0.091,-1.485 -1.899,-5.376 -6.57,-9.933 -10e-4,0 -10e-4,-0.001 -0.002,-0.001 l 4.879,-6.202 c 0.014,0.013 0.026,0.026 0.04,0.039 10.258,9.514 11.69,18.228 8.247,22.761 C 14.585,15.035 5.595,15.948 -6.59,8.262 -8.046,7.344 -9.544,6.312 -11.087,5.14 c -1.642,-1.248 -3.12,-2.489 -4.459,-3.717 -10.451,-9.591 -11.932,-18.394 -8.466,-22.958 3.408,-4.487 12.046,-5.473 23.781,1.619 l -4.599,6.429 c -5.438,-3.077 -9.574,-3.786 -10.994,-3.483 0.09,1.466 1.938,5.335 6.474,9.815 1.304,1.287 2.817,2.621 4.589,3.967 C -3.098,-1.924 -1.505,-0.878 0,0"
         style="fill:#fcd006;fill-opacity:1;fill-rule:nonzero;stroke:none"
         transform="matrix(1.3333333,0,0,-1.3333333,883.77667,229.2808)"
         clip-path="url(#clipPath163)" /><path
         id="path164"
         d="M 0,0 C 6.577,3.866 11.618,4.764 13.306,4.403 13.201,2.697 11.032,-1.848 5.653,-7.087 5.641,-7.098 5.631,-7.108 5.62,-7.119 l 5.737,-7.255 c 0.021,0.02 0.041,0.039 0.062,0.058 11.864,10.952 13.529,20.993 9.568,26.208 -4.019,5.292 -14.381,6.331 -28.422,-2.57 -1.63,-1.033 -3.307,-2.193 -5.032,-3.503 -1.827,-1.388 -3.476,-2.769 -4.976,-4.137 -12.112,-11.05 -13.841,-21.206 -9.849,-26.461 3.931,-5.175 13.928,-6.29 27.504,1.995 l -5.43,7.499 c -6.331,-3.621 -11.154,-4.455 -12.799,-4.103 0.104,1.696 2.259,6.197 7.565,11.394 1.464,1.434 3.154,2.918 5.124,4.414 C -3.469,-2.168 -1.687,-0.991 0,0"
         style="fill:#fcd006;fill-opacity:1;fill-rule:nonzero;stroke:none"
         transform="matrix(1.3333333,0,0,-1.3333333,907.93973,259.57507)"
         clip-path="url(#clipPath165)" /><path
         id="path166"
         d="M 0,0 C 4.85,2.806 8.558,3.462 9.811,3.194 9.733,1.927 8.144,-1.417 4.22,-5.291 4.206,-5.304 4.195,-5.317 4.181,-5.331 l 4.131,-5.212 c 0.019,0.018 0.036,0.036 0.055,0.053 8.78,8.189 10,15.682 7.035,19.586 -3.009,3.961 -10.736,4.758 -21.213,-1.81 -1.292,-0.81 -2.623,-1.725 -3.995,-2.767 -1.469,-1.116 -2.788,-2.226 -3.976,-3.324 -8.924,-8.246 -10.178,-15.805 -7.196,-19.732 2.936,-3.865 10.36,-4.724 20.449,1.335 l -3.88,5.411 c -4.642,-2.602 -8.167,-3.203 -9.383,-2.943 0.077,1.254 1.64,4.542 5.474,8.364 1.153,1.149 2.501,2.344 4.088,3.548 1.48,1.125 2.896,2.05 4.23,2.822"
         style="fill:#fcd006;fill-opacity:1;fill-rule:nonzero;stroke:none"
         transform="matrix(1.3333333,0,0,-1.3333333,861.16547,200.93253)"
         clip-path="url(#clipPath167)" /><path
         id="path168"
         d="M 0,0 C 4.536,6.145 10.604,11.281 17.683,13.926 5.103,28.942 -3.844,39.628 -3.844,39.628 c -0.808,0.134 -1.711,0.054 -2.635,-0.157 -2.417,-0.552 -4.986,-2.028 -6.432,-3.127 l -0.701,-0.532 c -1.384,-1.051 -3.38,-3 -4.583,-5.076 -0.536,-0.924 -0.915,-1.872 -1.013,-2.778 0,0 8.002,-11.641 19.208,-27.958"
         style="fill:#aab0c2;fill-opacity:1;fill-rule:nonzero;stroke:none"
         transform="matrix(1.3333333,0,0,-1.3333333,942.00947,344.08587)"
         clip-path="url(#clipPath169)" /><path
         id="path170"
         d="m 0,0 c -5.05,5.852 -30.594,36.272 -54.688,65.007 -7.364,-5.297 -14.597,-12.865 -17.196,-21.088 20.086,-29.277 40.293,-58.777 44.332,-64.847 8.496,-12.766 19.599,-13.942 26.836,-8.445 l 1.653,1.255 C 8.173,-22.621 10.019,-11.609 0,0"
         style="fill:#aab0c2;fill-opacity:1;fill-rule:nonzero;stroke:none"
         transform="matrix(1.3333333,0,0,-1.3333333,1071.1429,451.13507)"
         clip-path="url(#clipPath171)" /></g><g
       id="g8"
       inkscape:label="stars"
       style="display:inline"><path
         id="path172"
         d="m 0,0 -0.978,-12.621 c -0.106,-1.374 0.632,-2.676 1.866,-3.289 l 7.656,-3.809 -8.362,0.284 c -1.423,0.049 -2.724,-0.799 -3.254,-2.121 l -4.808,-11.994 1.04,12.869 c 0.115,1.418 -0.67,2.757 -1.965,3.348 l -7.703,3.521 8.458,-0.154 c 1.395,-0.025 2.662,0.809 3.191,2.1 z"
         style="fill:#ffffff;fill-opacity:1;fill-rule:nonzero;stroke:none"
         transform="matrix(1.3333333,0,0,-1.3333333,480.6976,208.61627)"
         clip-path="url(#clipPath173)" /><path
         id="path174"
         d="m 0,0 -0.978,-12.621 c -0.106,-1.374 0.632,-2.676 1.866,-3.289 l 7.656,-3.809 -8.362,0.284 c -1.424,0.049 -2.724,-0.799 -3.254,-2.121 l -4.808,-11.994 1.04,12.869 c 0.115,1.418 -0.67,2.757 -1.965,3.348 l -7.703,3.521 8.458,-0.154 c 1.395,-0.025 2.662,0.809 3.191,2.1 z"
         style="fill:#ffffff;fill-opacity:1;fill-rule:nonzero;stroke:none"
         transform="matrix(1.3333333,0,0,-1.3333333,1111.6584,370.98173)"
         clip-path="url(#clipPath175)" /><path
         id="path176"
         d="m 0,0 -0.978,-12.621 c -0.106,-1.374 0.632,-2.676 1.866,-3.289 l 7.656,-3.809 -8.362,0.285 c -1.423,0.048 -2.724,-0.8 -3.254,-2.122 l -4.809,-11.994 1.041,12.869 c 0.115,1.418 -0.67,2.757 -1.965,3.348 l -7.703,3.521 8.458,-0.154 c 1.395,-0.025 2.662,0.809 3.191,2.1 z"
         style="fill:#ffffff;fill-opacity:1;fill-rule:nonzero;stroke:none"
         transform="matrix(1.3333333,0,0,-1.3333333,483.1232,892.21427)"
         clip-path="url(#clipPath177)" /><path
         id="path178"
         d="m 0,0 1.588,-12.559 c 0.173,-1.367 1.159,-2.493 2.491,-2.845 l 8.267,-2.186 -8.248,-1.408 c -1.403,-0.24 -2.506,-1.333 -2.759,-2.735 l -2.29,-12.717 -1.576,12.814 c -0.174,1.413 -1.213,2.565 -2.6,2.883 l -8.256,1.895 8.316,1.555 c 1.371,0.257 2.444,1.329 2.702,2.701 z"
         style="fill:#ffffff;fill-opacity:1;fill-rule:nonzero;stroke:none"
         transform="matrix(1.3333333,0,0,-1.3333333,235.8456,497.73467)"
         clip-path="url(#clipPath179)" /><path
         id="path180"
         d="M 0,0 3.314,-8.235 C 3.674,-9.132 4.543,-9.72 5.51,-9.722 l 5.996,-0.01 -5.343,-2.424 c -0.91,-0.412 -1.463,-1.35 -1.385,-2.346 l 0.711,-9.033 -3.35,8.411 c -0.37,0.927 -1.28,1.523 -2.277,1.492 l -5.937,-0.185 5.363,2.536 c 0.884,0.418 1.421,1.336 1.352,2.312 z"
         style="fill:#fcd006;fill-opacity:1;fill-rule:nonzero;stroke:none"
         transform="matrix(1.3333333,0,0,-1.3333333,970.09827,210.7692)"
         clip-path="url(#clipPath181)" /><path
         id="path182"
         d="M 0,0 3.314,-8.235 C 3.674,-9.132 4.543,-9.72 5.51,-9.722 l 5.996,-0.01 -5.343,-2.424 c -0.91,-0.412 -1.463,-1.35 -1.385,-2.346 l 0.711,-9.033 -3.35,8.411 c -0.37,0.927 -1.28,1.523 -2.277,1.492 l -5.937,-0.185 5.363,2.536 c 0.884,0.418 1.421,1.336 1.352,2.312 z"
         style="fill:#fcd006;fill-opacity:1;fill-rule:nonzero;stroke:none"
         transform="matrix(1.3333333,0,0,-1.3333333,443.2704,418.8004)"
         clip-path="url(#clipPath183)" /><path
         id="path184"
         d="m 0,0 -8.836,-12.043 9.175,-11.786 -14.184,4.682 -8.375,-12.368 0.07,14.936 -14.35,4.143 14.227,4.549 -0.495,14.929 8.723,-12.125 z"
         style="fill:#ffffff;fill-opacity:1;fill-rule:nonzero;stroke:none"
         transform="matrix(1.3333333,0,0,-1.3333333,346.23427,313.95813)"
         clip-path="url(#clipPath185)" /><path
         id="path186"
         d="m 0,0 4.346,-14.29 14.934,0.282 -12.247,-8.55 4.883,-14.115 -11.916,9.006 -11.916,-9.006 4.883,14.115 -12.247,8.55 14.934,-0.282 z"
         style="fill:#ffffff;fill-opacity:1;fill-rule:nonzero;stroke:none"
         transform="matrix(1.3333333,0,0,-1.3333333,633.42853,267.52587)"
         clip-path="url(#clipPath187)" /><path
         id="path188"
         d="m 0,0 -0.821,-12.246 11.557,-4.131 -11.9,-3.004 -0.358,-12.268 -6.534,10.39 -11.778,-3.451 7.862,9.424 -6.921,10.136 11.392,-4.565 z"
         style="fill:#ffffff;fill-opacity:1;fill-rule:nonzero;stroke:none"
         transform="matrix(1.3333333,0,0,-1.3333333,923.88853,738.6284)"
         clip-path="url(#clipPath189)" /><path
         id="path190"
         d="m 0,0 3.308,-6.575 7.228,1.389 -5.23,-5.178 3.554,-6.445 -6.541,3.374 -5.031,-5.372 1.188,7.264 -6.664,3.125 7.275,1.115 z"
         style="fill:#fcd006;fill-opacity:1;fill-rule:nonzero;stroke:none"
         transform="matrix(1.3333333,0,0,-1.3333333,151.68733,662.03693)"
         clip-path="url(#clipPath191)" /><path
         id="path192"
         d="m 0,0 3.308,-6.575 7.228,1.389 -5.23,-5.178 3.554,-6.445 -6.541,3.374 -5.031,-5.372 1.188,7.264 -6.664,3.125 7.275,1.114 z"
         style="fill:#fcd006;fill-opacity:1;fill-rule:nonzero;stroke:none"
         transform="matrix(1.3333333,0,0,-1.3333333,1010.6511,552.27387)"
         clip-path="url(#clipPath193)" /><path
         id="path194"
         d="m 0,0 c 0,-1.955 -1.584,-3.539 -3.539,-3.539 -1.954,0 -3.539,1.584 -3.539,3.539 0,1.954 1.585,3.539 3.539,3.539 C -1.584,3.539 0,1.954 0,0"
         style="fill:#ffffff;fill-opacity:1;fill-rule:nonzero;stroke:none"
         transform="matrix(1.3333333,0,0,-1.3333333,799.32653,297.02787)"
         clip-path="url(#clipPath195)" /><path
         id="path196"
         d="m 0,0 c 0,-1.954 -1.584,-3.539 -3.539,-3.539 -1.954,0 -3.539,1.585 -3.539,3.539 0,1.955 1.585,3.539 3.539,3.539 C -1.584,3.539 0,1.955 0,0"
         style="fill:#ffffff;fill-opacity:1;fill-rule:nonzero;stroke:none"
         transform="matrix(1.3333333,0,0,-1.3333333,322.19547,384.91467)"
         clip-path="url(#clipPath197)" /><path
         id="path200"
         d="m 0,0 c 0,-1.954 -1.584,-3.539 -3.539,-3.539 -1.954,0 -3.539,1.585 -3.539,3.539 0,1.954 1.585,3.539 3.539,3.539 C -1.584,3.539 0,1.954 0,0"
         style="fill:#ffffff;fill-opacity:1;fill-rule:nonzero;stroke:none"
         transform="matrix(1.3333333,0,0,-1.3333333,595.36,879.76213)"
         clip-path="url(#clipPath201)" /><path
         id="path202"
         d="m 0,0 c 0,-1.376 -1.115,-2.491 -2.491,-2.491 -1.375,0 -2.491,1.115 -2.491,2.491 0,1.376 1.116,2.491 2.491,2.491 C -1.115,2.491 0,1.376 0,0"
         style="fill:#fcd006;fill-opacity:1;fill-rule:nonzero;stroke:none"
         transform="matrix(1.3333333,0,0,-1.3333333,706.954,153.83027)"
         clip-path="url(#clipPath203)" /><path
         id="path204"
         d="m 0,0 c 0,-1.376 -1.115,-2.491 -2.491,-2.491 -1.375,0 -2.491,1.115 -2.491,2.491 0,1.376 1.116,2.491 2.491,2.491 C -1.115,2.491 0,1.376 0,0"
         style="fill:#fcd006;fill-opacity:1;fill-rule:nonzero;stroke:none"
         transform="matrix(1.3333333,0,0,-1.3333333,992.0852,730.87747)"
         clip-path="url(#clipPath205)" /><path
         id="path206"
         d="m 0,0 c 0,-1.376 -1.115,-2.491 -2.491,-2.491 -1.375,0 -2.491,1.115 -2.491,2.491 0,1.376 1.116,2.491 2.491,2.491 C -1.115,2.491 0,1.376 0,0"
         style="fill:#fcd006;fill-opacity:1;fill-rule:nonzero;stroke:none"
         transform="matrix(1.3333333,0,0,-1.3333333,595.41547,259.54147)"
         clip-path="url(#clipPath207)" /><path
         id="path208"
         d="m 0,0 c 0,-1.376 -1.115,-2.491 -2.491,-2.491 -1.375,0 -2.491,1.115 -2.491,2.491 0,1.376 1.116,2.491 2.491,2.491 C -1.115,2.491 0,1.376 0,0"
         style="fill:#fcd006;fill-opacity:1;fill-rule:nonzero;stroke:none"
         transform="matrix(1.3333333,0,0,-1.3333333,372.068,910.6348)"
         clip-path="url(#clipPath209)" /><path
         id="path198"
         d="m 0,0 c 0,-1.955 -1.584,-3.539 -3.539,-3.539 -1.954,0 -3.539,1.584 -3.539,3.539 0,1.954 1.585,3.539 3.539,3.539 C -1.584,3.539 0,1.954 0,0"
         style="fill:#ffffff;fill-opacity:1;fill-rule:nonzero;stroke:none"
         transform="matrix(1.3333333,0,0,-1.3333333,1131.6933,434.75227)"
         clip-path="url(#clipPath199)" /></g></g></svg>
