<svg width="114" height="39" viewBox="0 0 114 39" fill="none" xmlns="http://www.w3.org/2000/svg">
    <path d="M22.4337 2.2158L32.7348 8.16309C34.62 9.25152 35.7813 11.263 35.7813 13.4399V25.3345C35.7813 27.5113 34.62 29.5228 32.7348 30.6113L22.4337 36.5586C20.5485 37.647 18.2258 37.647 16.3406 36.5586L6.0396 30.6113C4.15438 29.5228 2.99305 27.5113 2.99305 25.3345V13.4399C2.99305 11.263 4.15439 9.25152 6.0396 8.16309L16.3406 2.21579C18.2258 1.12736 20.5485 1.12737 22.4337 2.2158Z" fill="url(#paint0_linear_0_1)" stroke="black" stroke-width="0.791313"/>
    <path d="M5.77658 13.5325L16.0776 19.4798C18.0852 20.6389 20.5587 20.6389 22.5664 19.4798L32.8674 13.5325" stroke="url(#paint1_linear_0_1)" stroke-width="0.316525"/>
    <g style="mix-blend-mode:overlay">
    <path d="M8 22.236V31.4943" stroke="url(#paint2_linear_0_1)" stroke-width="0.316525"/>
    <path d="M6 20V30.2871" stroke="url(#paint3_linear_0_1)" stroke-width="0.316525"/>
    <path d="M10 25.243V32.6022" stroke="url(#paint4_linear_0_1)" stroke-width="0.316525"/>
    <path d="M12 28.25V33.8683" stroke="url(#paint5_linear_0_1)" stroke-width="0.316525"/>
    </g>
    <path d="M47.962 26C47.806 26 47.668 25.964 47.548 25.892C47.428 25.808 47.368 25.688 47.368 25.532V13.292C47.368 13.172 47.41 13.07 47.494 12.986C47.59 12.902 47.716 12.854 47.872 12.842H51.184C51.88 12.842 52.51 12.968 53.074 13.22C53.638 13.472 54.082 13.88 54.406 14.444C54.73 14.996 54.892 15.734 54.892 16.658V16.838C54.892 17.774 54.724 18.524 54.388 19.088C54.064 19.64 53.614 20.048 53.038 20.312C52.474 20.564 51.844 20.69 51.148 20.69H48.556V25.532C48.556 25.688 48.49 25.808 48.358 25.892C48.238 25.964 48.106 26 47.962 26ZM48.556 19.646H51.148C51.952 19.646 52.576 19.424 53.02 18.98C53.476 18.524 53.704 17.828 53.704 16.892V16.694C53.704 15.746 53.476 15.05 53.02 14.606C52.576 14.162 51.952 13.94 51.148 13.94H48.556V19.646ZM57.0436 26C56.8876 26 56.7496 25.952 56.6296 25.856C56.5216 25.76 56.4676 25.652 56.4676 25.532V17.936C56.4676 17.792 56.5216 17.684 56.6296 17.612C56.7496 17.528 56.8876 17.486 57.0436 17.486C57.1996 17.486 57.3316 17.528 57.4396 17.612C57.5476 17.684 57.6016 17.792 57.6016 17.936V18.818C57.7336 18.566 57.9136 18.332 58.1416 18.116C58.3696 17.9 58.6396 17.726 58.9516 17.594C59.2636 17.45 59.6176 17.378 60.0136 17.378H60.6436C60.7756 17.378 60.8836 17.432 60.9676 17.54C61.0636 17.648 61.1116 17.774 61.1116 17.918C61.1116 18.074 61.0636 18.206 60.9676 18.314C60.8836 18.41 60.7756 18.458 60.6436 18.458H60.0136C59.6176 18.458 59.2336 18.566 58.8616 18.782C58.5016 18.998 58.2076 19.298 57.9796 19.682C57.7516 20.066 57.6376 20.534 57.6376 21.086V25.532C57.6376 25.652 57.5776 25.76 57.4576 25.856C57.3496 25.952 57.2116 26 57.0436 26ZM65.5863 26.126C64.8303 26.126 64.1583 25.982 63.5703 25.694C62.9943 25.406 62.5383 25.01 62.2023 24.506C61.8783 23.99 61.7163 23.39 61.7163 22.706V20.708C61.7163 20.108 61.8723 19.556 62.1843 19.052C62.4963 18.536 62.9103 18.128 63.4263 17.828C63.9543 17.528 64.5303 17.378 65.1543 17.378C65.7543 17.378 66.3063 17.522 66.8103 17.81C67.3263 18.086 67.7403 18.47 68.0523 18.962C68.3643 19.454 68.5203 20.024 68.5203 20.672C68.5203 21.128 68.4423 21.458 68.2863 21.662C68.1303 21.866 67.9323 21.992 67.6923 22.04C67.4643 22.076 67.2183 22.094 66.9543 22.094H62.8863V22.76C62.8863 23.48 63.1443 24.05 63.6603 24.47C64.1763 24.89 64.8303 25.1 65.6223 25.1C66.1023 25.1 66.4743 25.04 66.7383 24.92C67.0023 24.8 67.2063 24.68 67.3503 24.56C67.5063 24.44 67.6503 24.38 67.7823 24.38C67.8783 24.38 67.9623 24.416 68.0343 24.488C68.1183 24.548 68.1783 24.62 68.2143 24.704C68.2623 24.788 68.2863 24.866 68.2863 24.938C68.2863 25.07 68.1783 25.232 67.9623 25.424C67.7463 25.616 67.4343 25.784 67.0263 25.928C66.6183 26.06 66.1383 26.126 65.5863 26.126ZM62.8863 21.23H66.4863C66.8463 21.23 67.0863 21.194 67.2063 21.122C67.3263 21.038 67.3863 20.87 67.3863 20.618C67.3863 20.234 67.2903 19.874 67.0983 19.538C66.9063 19.19 66.6423 18.908 66.3063 18.692C65.9703 18.464 65.5803 18.35 65.1363 18.35C64.7283 18.35 64.3503 18.452 64.0023 18.656C63.6663 18.86 63.3963 19.124 63.1923 19.448C62.9883 19.772 62.8863 20.138 62.8863 20.546V21.23ZM70.8424 26C70.6864 26 70.5544 25.958 70.4464 25.874C70.3384 25.79 70.2844 25.682 70.2844 25.55V15.704C70.2844 15.14 70.4284 14.594 70.7164 14.066C71.0044 13.538 71.4244 13.106 71.9764 12.77C72.5404 12.434 73.2304 12.266 74.0464 12.266C74.4904 12.266 74.9224 12.32 75.3424 12.428C75.7624 12.524 76.1104 12.656 76.3864 12.824C76.6624 12.992 76.8004 13.178 76.8004 13.382C76.8004 13.454 76.7764 13.544 76.7284 13.652C76.6924 13.76 76.6384 13.856 76.5664 13.94C76.4944 14.012 76.4164 14.048 76.3324 14.048C76.2364 14.048 76.1044 13.988 75.9364 13.868C75.7684 13.736 75.5404 13.616 75.2524 13.508C74.9644 13.388 74.5744 13.328 74.0824 13.328C73.5904 13.328 73.1764 13.406 72.8404 13.562C72.5044 13.706 72.2344 13.898 72.0304 14.138C71.8264 14.366 71.6764 14.618 71.5804 14.894C71.4964 15.158 71.4544 15.422 71.4544 15.686V17.486H73.7584C73.8784 17.486 73.9744 17.534 74.0464 17.63C74.1304 17.726 74.1724 17.84 74.1724 17.972C74.1724 18.092 74.1304 18.206 74.0464 18.314C73.9744 18.41 73.8784 18.458 73.7584 18.458H71.4544V25.55C71.4544 25.682 71.3944 25.79 71.2744 25.874C71.1544 25.958 71.0104 26 70.8424 26ZM76.5484 26C76.3804 26 76.2424 25.952 76.1344 25.856C76.0264 25.76 75.9724 25.652 75.9724 25.532V17.936C75.9724 17.792 76.0264 17.684 76.1344 17.612C76.2424 17.528 76.3804 17.486 76.5484 17.486C76.7164 17.486 76.8544 17.528 76.9624 17.612C77.0824 17.684 77.1424 17.792 77.1424 17.936V25.532C77.1424 25.652 77.0824 25.76 76.9624 25.856C76.8544 25.952 76.7164 26 76.5484 26ZM79.3723 26.126C79.2883 26.126 79.1923 26.096 79.0843 26.036C78.9763 25.976 78.8803 25.904 78.7963 25.82C78.7243 25.724 78.6883 25.634 78.6883 25.55C78.6883 25.454 78.7123 25.37 78.7603 25.298L81.1543 21.698L78.8143 18.206C78.8023 18.182 78.7843 18.146 78.7603 18.098C78.7363 18.05 78.7243 18.008 78.7243 17.972C78.7243 17.876 78.7603 17.786 78.8323 17.702C78.9163 17.606 79.0123 17.528 79.1203 17.468C79.2283 17.408 79.3363 17.378 79.4443 17.378C79.5043 17.378 79.5643 17.39 79.6243 17.414C79.6963 17.438 79.7563 17.486 79.8043 17.558L81.9283 20.852L84.0703 17.558C84.1063 17.498 84.1543 17.456 84.2143 17.432C84.2863 17.396 84.3523 17.378 84.4123 17.378C84.5203 17.378 84.6283 17.408 84.7363 17.468C84.8443 17.516 84.9343 17.588 85.0063 17.684C85.0903 17.768 85.1323 17.864 85.1323 17.972C85.1323 18.044 85.1023 18.122 85.0423 18.206L82.6843 21.698L85.0963 25.298C85.1203 25.322 85.1383 25.358 85.1503 25.406C85.1623 25.454 85.1683 25.502 85.1683 25.55C85.1683 25.634 85.1323 25.724 85.0603 25.82C84.9883 25.904 84.8983 25.976 84.7903 26.036C84.6823 26.096 84.5743 26.126 84.4663 26.126C84.4063 26.126 84.3403 26.108 84.2683 26.072C84.2083 26.048 84.1603 26.006 84.1243 25.946L81.9283 22.58L79.7503 25.946C79.7023 26.006 79.6423 26.048 79.5703 26.072C79.5103 26.108 79.4443 26.126 79.3723 26.126ZM87.2955 21.41C87.0435 21.41 86.8335 21.332 86.6655 21.176C86.5095 21.008 86.4315 20.816 86.4315 20.6C86.4315 20.372 86.5095 20.18 86.6655 20.024C86.8335 19.868 87.0435 19.79 87.2955 19.79C87.5235 19.79 87.7155 19.868 87.8715 20.024C88.0395 20.18 88.1235 20.372 88.1235 20.6C88.1235 20.816 88.0395 21.008 87.8715 21.176C87.7155 21.332 87.5235 21.41 87.2955 21.41ZM92.9038 26.126C92.3518 26.126 91.8298 25.97 91.3378 25.658C90.8458 25.334 90.4498 24.908 90.1498 24.38C89.8618 23.852 89.7178 23.294 89.7178 22.706V20.762C89.7178 20.138 89.8618 19.574 90.1498 19.07C90.4498 18.554 90.8458 18.146 91.3378 17.846C91.8298 17.534 92.3698 17.378 92.9578 17.378C93.5458 17.378 94.0378 17.522 94.4338 17.81C94.8418 18.086 95.1418 18.398 95.3338 18.746V12.716C95.3338 12.572 95.3938 12.464 95.5138 12.392C95.6338 12.308 95.7718 12.266 95.9278 12.266C96.1078 12.266 96.2458 12.308 96.3418 12.392C96.4498 12.464 96.5038 12.572 96.5038 12.716V25.532C96.5038 25.652 96.4498 25.76 96.3418 25.856C96.2458 25.952 96.1078 26 95.9278 26C95.7838 26 95.6518 25.952 95.5318 25.856C95.4238 25.76 95.3698 25.652 95.3698 25.532V24.74C95.1898 25.112 94.8718 25.436 94.4158 25.712C93.9718 25.988 93.4678 26.126 92.9038 26.126ZM93.1198 25.046C93.5518 25.046 93.9298 24.938 94.2538 24.722C94.5898 24.494 94.8538 24.242 95.0458 23.966C95.2378 23.678 95.3338 23.444 95.3338 23.264V20.762C95.3338 20.27 95.2258 19.856 95.0098 19.52C94.7938 19.184 94.5178 18.926 94.1818 18.746C93.8458 18.554 93.4978 18.458 93.1378 18.458C92.7298 18.458 92.3578 18.572 92.0218 18.8C91.6858 19.016 91.4158 19.298 91.2118 19.646C91.0078 19.994 90.9058 20.366 90.9058 20.762V22.706C90.9058 23.102 91.0078 23.48 91.2118 23.84C91.4158 24.2 91.6858 24.494 92.0218 24.722C92.3578 24.938 92.7238 25.046 93.1198 25.046ZM102.325 26.126C101.569 26.126 100.897 25.982 100.309 25.694C99.7325 25.406 99.2765 25.01 98.9405 24.506C98.6165 23.99 98.4545 23.39 98.4545 22.706V20.708C98.4545 20.108 98.6105 19.556 98.9225 19.052C99.2345 18.536 99.6485 18.128 100.165 17.828C100.693 17.528 101.269 17.378 101.893 17.378C102.493 17.378 103.045 17.522 103.549 17.81C104.065 18.086 104.479 18.47 104.791 18.962C105.103 19.454 105.259 20.024 105.259 20.672C105.259 21.128 105.181 21.458 105.025 21.662C104.869 21.866 104.671 21.992 104.431 22.04C104.203 22.076 103.957 22.094 103.693 22.094H99.6245V22.76C99.6245 23.48 99.8825 24.05 100.399 24.47C100.915 24.89 101.569 25.1 102.361 25.1C102.841 25.1 103.213 25.04 103.477 24.92C103.741 24.8 103.945 24.68 104.089 24.56C104.245 24.44 104.389 24.38 104.521 24.38C104.617 24.38 104.701 24.416 104.773 24.488C104.857 24.548 104.917 24.62 104.953 24.704C105.001 24.788 105.025 24.866 105.025 24.938C105.025 25.07 104.917 25.232 104.701 25.424C104.485 25.616 104.173 25.784 103.765 25.928C103.357 26.06 102.877 26.126 102.325 26.126ZM99.6245 21.23H103.225C103.585 21.23 103.825 21.194 103.945 21.122C104.065 21.038 104.125 20.87 104.125 20.618C104.125 20.234 104.029 19.874 103.837 19.538C103.645 19.19 103.381 18.908 103.045 18.692C102.709 18.464 102.319 18.35 101.875 18.35C101.467 18.35 101.089 18.452 100.741 18.656C100.405 18.86 100.135 19.124 99.9305 19.448C99.7265 19.772 99.6245 20.138 99.6245 20.546V21.23ZM109.669 26.144C109.537 26.144 109.423 26.12 109.327 26.072C109.231 26.024 109.165 25.952 109.129 25.856L106.231 18.26C106.207 18.236 106.183 18.194 106.159 18.134C106.147 18.074 106.141 18.026 106.141 17.99C106.141 17.894 106.177 17.804 106.249 17.72C106.333 17.636 106.429 17.57 106.537 17.522C106.657 17.474 106.765 17.45 106.861 17.45C106.957 17.45 107.041 17.474 107.113 17.522C107.197 17.558 107.257 17.624 107.293 17.72L109.669 24.2L112.045 17.792C112.069 17.696 112.111 17.618 112.171 17.558C112.231 17.486 112.327 17.45 112.459 17.45C112.555 17.45 112.657 17.474 112.765 17.522C112.873 17.57 112.969 17.636 113.053 17.72C113.137 17.792 113.179 17.882 113.179 17.99C113.179 18.038 113.173 18.092 113.161 18.152C113.149 18.2 113.131 18.236 113.107 18.26L110.209 25.856C110.173 25.94 110.101 26.006 109.993 26.054C109.897 26.114 109.789 26.144 109.669 26.144Z" fill="white"/>
    <defs>
    <linearGradient id="paint0_linear_0_1" x1="19.3872" y1="0" x2="19.3872" y2="38.7744" gradientUnits="userSpaceOnUse">
    <stop stop-color="#FFF500"/>
    <stop offset="0.686651" stop-color="#FFC000"/>
    <stop offset="1" stop-color="#FF7A00"/>
    </linearGradient>
    <linearGradient id="paint1_linear_0_1" x1="19.308" y1="22.3941" x2="19.308" y2="13.6106" gradientUnits="userSpaceOnUse">
    <stop/>
    <stop offset="1" stop-opacity="0.24"/>
    </linearGradient>
    <linearGradient id="paint2_linear_0_1" x1="9.85959" y1="22.236" x2="9.85959" y2="33.8683" gradientUnits="userSpaceOnUse">
    <stop stop-opacity="0"/>
    <stop offset="1"/>
    </linearGradient>
    <linearGradient id="paint3_linear_0_1" x1="6.5" y1="20" x2="6.5" y2="30.2871" gradientUnits="userSpaceOnUse">
    <stop stop-opacity="0"/>
    <stop offset="1"/>
    </linearGradient>
    <linearGradient id="paint4_linear_0_1" x1="9.8813" y1="22.236" x2="9.8813" y2="33.8683" gradientUnits="userSpaceOnUse">
    <stop stop-opacity="0"/>
    <stop offset="1"/>
    </linearGradient>
    <linearGradient id="paint5_linear_0_1" x1="10.1404" y1="22.236" x2="10.1404" y2="33.8683" gradientUnits="userSpaceOnUse">
    <stop stop-opacity="0"/>
    <stop offset="1"/>
    </linearGradient>
    </defs>
    </svg>
