<svg width="265" height="265" viewBox="0 0 265 265" fill="none" xmlns="http://www.w3.org/2000/svg">
<path d="M153.321 15.1437L223.723 55.7899C236.607 63.2287 244.544 76.9761 244.544 91.8537V173.146C244.544 188.024 236.607 201.771 223.723 209.21L153.321 249.856C140.437 257.295 124.563 257.295 111.679 249.856L41.2771 209.21C28.3928 201.771 20.4557 188.024 20.4557 173.146V91.8537C20.4557 76.9761 28.3928 63.2287 41.2771 55.7899L111.679 15.1437C124.563 7.70487 140.437 7.70488 153.321 15.1437Z" fill="url(#paint0_linear_812_123)" stroke="black" stroke-width="5.40816"/>
<path d="M39.4796 92.4873L109.881 133.134C123.602 141.055 140.507 141.055 154.228 133.134L224.629 92.4873" stroke="url(#paint1_linear_812_123)" stroke-width="2.16326"/>
<g style="mix-blend-mode:overlay">
<path d="M54.6224 151.97V215.245M68.1428 172.521V222.817M80.0408 193.072V231.47" stroke="url(#paint2_linear_812_123)" stroke-width="2.16326"/>
<path d="M40.0204 136.285V206.591" stroke="url(#paint3_linear_812_123)" stroke-width="2.16326"/>
</g>
<defs>
<linearGradient id="paint0_linear_812_123" x1="132.5" y1="0" x2="132.5" y2="265" gradientUnits="userSpaceOnUse">
<stop stop-color="#FFF500"/>
<stop offset="0.686651" stop-color="#FFC000"/>
<stop offset="1" stop-color="#FF7A00"/>
</linearGradient>
<linearGradient id="paint1_linear_812_123" x1="131.959" y1="153.051" x2="131.959" y2="93.0205" gradientUnits="userSpaceOnUse">
<stop/>
<stop offset="1" stop-opacity="0.24"/>
</linearGradient>
<linearGradient id="paint2_linear_812_123" x1="67.3316" y1="151.97" x2="67.3316" y2="231.47" gradientUnits="userSpaceOnUse">
<stop stop-opacity="0"/>
<stop offset="1"/>
</linearGradient>
<linearGradient id="paint3_linear_812_123" x1="40.5204" y1="136.285" x2="40.5204" y2="206.591" gradientUnits="userSpaceOnUse">
<stop stop-opacity="0"/>
<stop offset="1"/>
</linearGradient>
</defs>
</svg>
