<svg width="512" height="390" viewBox="0 0 512 390" fill="none" xmlns="http://www.w3.org/2000/svg">
<g clip-path="url(#clip0_2034_553)">
<path d="M198.101 0C201.048 0 203.944 0.218224 206.773 0.639648C255.463 0.376657 312.875 0.163855 375.672 0C368.196 1.80369 360.792 4.74425 353.828 10.7041L353.265 11.1943C341.52 21.5454 335.453 36.5341 334.885 51.6777C333.794 80.741 333.128 122.665 333.045 147.059V147.065C333.04 149.243 333.136 151.056 333.633 152.682C336.204 164.838 346.9 173.219 360.091 173.219C368.192 173.219 375.36 170.012 380.36 164.746C381.077 164.058 381.74 163.307 382.347 162.498L382.615 162.132L382.623 162.121C382.648 162.086 382.675 162.047 382.719 161.987C382.758 161.933 382.813 161.857 382.87 161.776L382.921 161.704L382.932 161.688C382.949 161.665 382.963 161.647 383.029 161.562C383.14 161.419 383.4 161.083 383.652 160.649L384.213 159.707C396.138 140.073 417.273 129.74 441.619 129.74C462.266 129.74 479.888 136.839 492.324 148.933C504.746 161.012 512.272 178.34 512.272 199.348C512.272 240.414 481.773 267.883 444.009 267.883C429.644 267.883 417.513 264.002 406.438 257.028L406.437 257.027C400.884 253.533 395.834 248.992 391.393 243.931L391.394 243.93C389.691 241.989 388.194 239.813 386.49 237.351C384.845 234.973 383.002 232.323 380.808 229.908L380.806 229.91C380.519 229.594 380.224 229.35 379.956 229.165C374.976 224.144 367.981 221.102 360.086 221.102C344.859 221.102 333.04 232.268 333.04 247.25V247.268C333.132 271.714 333.766 309.828 334.881 337.471C335.513 353.058 341.027 366.384 350.608 375.978C357.024 382.401 365.115 387.002 374.454 389.524C303.326 389.495 242.843 389.459 201.218 389.42C200.186 389.474 199.146 389.502 198.101 389.502H58.3779C26.1369 389.502 9.8116e-05 363.366 0 331.125V58.377C3.69781e-05 46.5278 3.52954 35.5026 9.5957 26.2969C14.0468 18.3899 20.5551 12.1611 28.8115 8.0293C37.4828 2.92624 47.5888 0 58.3779 0H198.101Z" fill="#0B0B82"/>
<mask id="mask0_2034_553" style="mask-type:alpha" maskUnits="userSpaceOnUse" x="0" y="0" width="513" height="390">
<path d="M375.672 0C368.196 1.80368 360.792 4.74471 353.828 10.7047L353.265 11.1944C341.519 21.5455 335.452 36.5347 334.884 51.6785C333.794 80.7418 333.128 122.665 333.045 147.059V147.065C333.04 149.243 333.136 151.057 333.633 152.682C336.204 164.838 346.9 173.219 360.091 173.219C368.192 173.219 375.359 170.013 380.36 164.747C381.077 164.058 381.741 163.308 382.347 162.498L382.615 162.132L382.623 162.122C382.648 162.086 382.676 162.048 382.719 161.988C382.758 161.934 382.813 161.857 382.87 161.777L382.921 161.705L382.932 161.688C382.949 161.666 382.963 161.647 383.029 161.562C383.14 161.419 383.4 161.084 383.653 160.65L384.213 159.707C396.138 140.073 417.273 129.74 441.619 129.74C462.265 129.74 479.888 136.839 492.325 148.933C504.746 161.012 512.272 178.34 512.272 199.348C512.272 240.414 481.773 267.883 444.009 267.883C429.644 267.883 417.513 264.003 406.438 257.029L406.437 257.028C400.885 253.534 395.835 248.993 391.393 243.931L391.394 243.93C389.691 241.989 388.194 239.814 386.49 237.351C384.845 234.974 383.002 232.323 380.808 229.908L380.806 229.91C380.519 229.594 380.224 229.35 379.956 229.165C374.976 224.145 367.981 221.102 360.086 221.102C344.859 221.102 333.04 232.268 333.04 247.25V247.268C333.133 271.715 333.765 309.828 334.881 337.471C335.513 353.059 341.027 366.384 350.609 375.978C357.024 382.401 365.115 387.003 374.454 389.525C242.759 389.47 147.554 389.399 140.979 389.309C111.461 388.906 81.9486 388.158 52.4507 387.051C24.5463 386.002 3.89795 365.979 2.77593 337.396C-0.959223 242.261 -0.891239 147.112 2.77593 51.972L2.78154 51.9813C3.90351 22.8737 22.5942 3.45745 52.4563 2.32617C81.9844 1.20995 210.118 0.431981 375.672 0Z" fill="#FFD432"/>
</mask>
<g mask="url(#mask0_2034_553)">
<path d="M304.069 412.708C312.312 421.844 317.266 421.196 305.95 447.043C294.634 472.891 256.741 511.923 234.788 526.314C218.175 537.205 189.994 538.888 167.69 517.671C145.387 496.456 140.316 482.784 149.069 468.649C157.824 454.514 199.638 391.473 206.052 379.077C212.466 366.682 232.86 358.433 245.482 366.13C258.106 373.828 304.069 412.708 304.069 412.708Z" fill="#778292"/>
<path d="M232.106 373.486C238.63 364.153 258.521 366.793 276.534 379.384C294.549 391.976 303.862 409.749 297.338 419.083C290.814 428.417 270.923 425.776 252.91 413.186C234.896 400.594 225.582 382.82 232.106 373.486Z" fill="#080604"/>
<path d="M312.276 309.93C311.431 316.156 305.283 324.763 295.137 329.374C284.993 333.986 269.622 364.421 273.004 376.41C276.384 388.399 279.152 400.081 297.905 398.851C316.658 397.622 335.717 382.251 335.717 381.328C335.717 380.407 345.863 336.445 345.863 336.445L320.653 311.851L312.276 309.93Z" fill="#080604"/>
<path d="M361.002 340.749L328.031 309.623L312.276 309.93L340.022 338.904L356.622 349.972L361.002 340.749Z" fill="#AAB0C2"/>
<path d="M298.751 307.548L277.307 277.42C239.802 282.339 215.208 331.526 226.89 356.12C240.427 384.618 266.855 406.537 289.296 411.763C289.296 411.763 270.544 404.692 267.471 380.098C264.396 355.504 282.764 322.303 298.751 307.548Z" fill="#566576"/>
<path d="M350.923 340.002C348.412 383.347 311.138 417.556 280.996 397.93C256.262 381.823 262.788 342.905 304.357 315.862" stroke="#778292" stroke-width="21" stroke-miterlimit="10"/>
<path d="M110.609 104.174C114.92 100.9 119.58 103.279 121.515 105.828L122.146 106.62L145.943 103.497C148.915 103.107 150.037 99.3921 147.775 97.4231L122.865 75.7402L128.897 43.2704C129.444 40.3226 126.256 38.1093 123.686 39.6507L95.3666 56.6418L66.3495 40.8723C63.7151 39.4401 60.6257 41.7869 61.2976 44.709L68.7042 76.8926L44.7404 99.6155C42.5641 101.679 43.842 105.344 46.8284 105.606L79.7257 108.507L93.9313 138.322C95.2219 141.027 99.102 140.945 100.274 138.187L109.784 115.824L109.278 115.125C107.341 112.575 106.3 107.448 110.609 104.174Z" fill="#FCD006"/>
<path d="M216.32 244.945L217.447 244.09C219.771 242.323 223.9 239.952 227.785 239.065L215.481 223.64C215.447 223.672 215.417 223.702 215.383 223.733L206.162 212.072C206.179 212.054 206.195 212.038 206.213 212.02L197.128 200.629C194.417 202.222 191.553 204.114 188.564 206.383C185.398 208.788 182.682 211.173 180.327 213.478L208.954 253.104C210.887 249.767 214.095 246.634 216.32 244.945Z" fill="#778292"/>
<path d="M157.407 150.828L154.19 146.795C154.16 146.824 154.134 146.852 154.102 146.881L147.462 138.503C147.485 138.481 147.502 138.461 147.525 138.439L140.742 129.934C138.598 131.175 136.322 132.662 133.943 134.47C131.394 136.407 129.225 138.328 127.372 140.173L143.011 161.822C145.164 159.847 147.541 157.852 150.18 155.848C152.66 153.964 155.068 152.304 157.407 150.828Z" fill="#778292"/>
<path d="M131.402 118.225L122.147 106.622L121.515 105.83C119.58 103.28 114.92 100.902 110.609 104.176C106.3 107.45 107.341 112.577 109.278 115.126L109.785 115.826L118.589 128.016C120.499 126.249 122.619 124.465 124.98 122.673C127.186 120.998 129.325 119.526 131.402 118.225Z" fill="#778292"/>
<path d="M185.178 185.644L183.8 183.919C183.778 183.94 183.76 183.959 183.738 183.98L175.894 174.013C175.895 174.011 175.897 174.011 175.897 174.01L167.999 164.109C165.581 165.518 163.021 167.201 160.346 169.233C157.498 171.395 155.066 173.541 152.972 175.609L169.092 197.924C171.503 195.725 174.153 193.505 177.09 191.274C179.862 189.169 182.558 187.306 185.178 185.644Z" fill="#778292"/>
<path d="M167.999 164.109C177.124 158.785 184.109 157.544 186.458 158.044C186.313 160.433 183.405 166.687 175.898 174.01C175.898 174.012 175.896 174.012 175.894 174.013L183.738 183.98C183.761 183.959 183.778 183.94 183.801 183.919C200.289 168.627 202.591 154.621 197.056 147.335C191.442 139.943 176.994 138.475 157.407 150.827C155.068 152.303 152.66 153.963 150.18 155.847C147.541 157.851 145.164 159.846 143.011 161.822C126.213 177.236 123.833 191.387 129.404 198.721C134.883 205.935 148.766 207.518 167.628 196.12L160.237 185.787C151.495 190.733 144.847 191.872 142.566 191.385C142.711 189.029 145.68 182.81 152.972 175.609C155.067 173.541 157.498 171.395 160.347 169.233C163.021 167.201 165.582 165.518 167.999 164.109Z" fill="#FCD006"/>
<path d="M197.129 200.627C207.7 194.415 215.803 192.97 218.514 193.55C218.347 196.294 214.861 203.598 206.213 212.019C206.196 212.036 206.18 212.052 206.162 212.07L215.383 223.731C215.417 223.701 215.447 223.67 215.481 223.638C234.552 206.035 237.228 189.895 230.86 181.513C224.4 173.009 207.747 171.339 185.178 185.644C182.558 187.306 179.863 189.169 177.09 191.274C174.153 193.505 171.503 195.725 169.092 197.924C149.622 215.685 146.845 232.009 153.261 240.456C159.58 248.775 175.648 250.566 197.469 237.249L188.742 225.197C178.564 231.016 170.812 232.356 168.169 231.79C168.336 229.066 171.8 221.83 180.327 213.477C182.682 211.172 185.398 208.786 188.565 206.382C191.553 204.112 194.417 202.22 197.129 200.627Z" fill="#FCD006"/>
<path d="M140.742 129.934C148.537 125.424 154.497 124.369 156.511 124.8C156.386 126.836 153.832 132.211 147.525 138.438C147.502 138.461 147.485 138.48 147.462 138.502L154.102 146.88C154.134 146.851 154.16 146.824 154.19 146.795C168.303 133.632 170.264 121.588 165.498 115.315C160.661 108.947 148.242 107.666 131.402 118.224C129.325 119.525 127.186 120.997 124.98 122.672C122.619 124.464 120.499 126.248 118.59 128.014C104.246 141.269 102.23 153.417 107.025 159.729C111.742 165.941 123.675 167.323 139.892 157.583L133.655 148.886C126.194 153.068 120.528 154.034 118.573 153.616C118.697 151.601 121.21 146.316 127.372 140.172C129.225 138.327 131.394 136.406 133.943 134.47C136.322 132.661 138.598 131.175 140.742 129.934Z" fill="#FCD006"/>
<path d="M238.199 302.505C245.49 292.629 255.244 284.374 266.623 280.121C246.402 255.985 232.021 238.809 232.021 238.809C230.722 238.594 229.271 238.723 227.785 239.063C223.901 239.951 219.771 242.322 217.447 244.088L216.32 244.943C214.096 246.632 210.888 249.765 208.954 253.102C208.094 254.587 207.483 256.111 207.326 257.567C207.326 257.567 220.188 276.28 238.199 302.505Z" fill="#AAB0C2"/>
<path d="M393.869 431.554C385.752 422.148 344.696 373.253 305.969 327.067C294.131 335.581 282.505 347.745 278.328 360.962C310.613 408.021 343.092 455.436 349.584 465.193C363.24 485.712 381.088 487.602 392.718 478.767L395.375 476.749C407.006 467.914 409.973 450.216 393.869 431.554Z" fill="#AAB0C2"/>
<path d="M442.711 334.928L441.139 355.216C440.969 357.425 442.155 359.516 444.139 360.503L456.443 366.623L443.002 366.167C440.715 366.088 438.624 367.453 437.772 369.576L430.044 388.854L431.717 368.17C431.902 365.891 430.639 363.74 428.559 362.788L416.176 357.129L429.771 357.377C432.013 357.417 434.051 356.078 434.901 354.001L442.711 334.928Z" fill="white"/>
<path d="M272.061 141.793L277.386 155.03C277.967 156.471 279.363 157.416 280.916 157.418L290.554 157.436L281.966 161.332C280.505 161.994 279.614 163.502 279.741 165.101L280.884 179.62L275.498 166.102C274.905 164.612 273.442 163.654 271.838 163.704L262.295 164.002L270.915 159.926C272.338 159.254 273.201 157.777 273.088 156.208L272.061 141.793Z" fill="#FCD006"/>
<path d="M66.1953 245.777C66.1953 248.918 63.6477 251.466 60.507 251.466C57.3646 251.466 54.8186 248.918 54.8186 245.777C54.8186 242.635 57.3646 240.089 60.507 240.089C63.6477 240.089 66.1953 242.635 66.1953 245.777Z" fill="white"/>
</g>
</g>
<defs>
<clipPath id="clip0_2034_553">
<rect width="512" height="389.503" fill="white"/>
</clipPath>
</defs>
</svg>
