<svg width="154" height="41" viewBox="0 0 154 41" fill="none" xmlns="http://www.w3.org/2000/svg">
<path d="M73.0543 8.76202C71.5401 8.76202 69.7371 9.87979 68.6916 12.1875H68.5472V10.5289C68.5472 9.33896 68.259 8.79812 66.9968 8.79812C65.6264 8.79812 62.3813 10.1325 62.3813 10.9979C62.3813 11.7189 62.9583 11.9352 64.0761 12.5482C64.401 12.7645 64.653 13.1252 64.6169 13.7382V23.8707C64.6169 25.313 62.598 25.3491 62.598 26.3947C62.598 27.0799 63.1749 27.3323 64.2566 27.3323H69.1241C70.2419 27.3323 70.7827 27.0799 70.7827 26.3947C70.7827 25.3491 68.7638 25.313 68.7638 23.8707V17.0557C68.7638 13.7743 69.9176 13.1251 71.1076 13.1251C72.0449 13.1251 72.3698 13.3775 73.1627 13.3775C74.4609 13.3775 75.5426 12.6204 75.5426 10.9618C75.5426 9.73573 74.7497 8.76202 73.0543 8.76202Z" fill="#001D38"/>
<path d="M113.912 23.871V10.565C113.912 9.41116 113.552 8.79812 112.073 8.79812C110.703 8.79812 107.53 9.77183 107.53 10.7813C107.53 11.4665 108.035 11.5026 109.008 12.2236C109.55 12.6565 109.765 13.089 109.765 13.9545V23.871C109.765 25.3134 107.746 25.3495 107.746 26.395C107.746 27.0803 108.323 27.3326 109.405 27.3326H114.273C115.39 27.3326 115.931 27.0803 115.931 26.395C115.931 25.3495 113.912 25.3134 113.912 23.871Z" fill="#001D38"/>
<path d="M111.568 6.74274C113.118 6.74274 114.308 5.62497 114.308 4.14652C114.308 2.66808 113.118 1.5503 111.568 1.5503C110.018 1.5503 108.864 2.66842 108.864 4.14652C108.864 5.62463 110.018 6.74274 111.568 6.74274Z" fill="#001D38"/>
<path d="M133.663 23.871L129.696 18.4623C130.489 18.0656 131.174 17.633 131.787 17.2002C134.564 15.2531 135.826 13.1616 135.826 11.2506C135.826 9.5559 134.78 8.76236 133.41 8.76236C132.4 8.76236 130.922 9.4115 130.922 10.9982C130.922 12.4767 132.328 12.9092 132.04 13.8468C131.896 14.3516 131.643 14.8563 130.742 15.5415C130.237 15.9022 129.516 16.3347 128.542 16.8756L125.369 12.5486C125.081 12.1879 124.972 11.8998 124.972 11.6831C124.972 11.034 126.018 10.9621 126.018 10.1689C126.018 9.4115 125.513 9.3032 124.468 9.3032H119.203C118.373 9.3032 117.833 9.5559 117.833 10.313C117.833 11.6109 119.131 11.0701 120.068 12.1879L124.504 18.1739C123.457 18.6425 122.557 19.1833 121.692 19.7964C119.419 21.4911 117.905 23.3302 117.905 25.3856C117.905 26.9359 118.878 27.8735 120.465 27.8735C121.763 27.8735 122.917 27.0803 122.917 25.6018C122.917 24.1595 121.186 23.6909 121.692 22.8616C121.98 22.3204 122.34 21.8879 122.845 21.4189C123.421 20.9141 124.215 20.4094 125.658 19.7242L129.12 24.4119C129.227 24.5563 129.335 24.7364 129.335 24.8805C129.335 25.4217 128.362 25.4935 128.362 26.3232C128.362 27.0081 128.831 27.3327 129.769 27.3327H134.925C135.862 27.3327 136.223 26.864 136.223 26.2871C136.223 24.8447 134.817 25.4574 133.663 23.871H133.663Z" fill="#001D38"/>
<path d="M143.184 12.3527C143.074 12.27 142.991 12.1695 142.991 11.9495V7.01486C142.991 6.74002 142.762 6.50195 142.323 6.50195C141.764 6.50195 140.546 6.82244 140.546 7.18856C140.546 7.38098 140.656 7.45387 140.784 7.53663C140.94 7.63744 141.087 7.78354 141.087 8.20484V8.79983C140.84 8.68096 140.629 8.62613 140.272 8.62613C138.816 8.62613 137.983 9.64241 137.983 11.0708C137.983 12.646 138.816 13.4698 140.024 13.4698C140.665 13.4698 141.132 13.1217 141.353 12.7648H141.408V12.9756C141.408 13.3234 141.517 13.4698 141.846 13.4698C142.46 13.4698 143.522 13.1313 143.522 12.7832C143.522 12.5268 143.339 12.4712 143.184 12.3527ZM141.077 11.5105C141.077 11.9222 140.986 12.2792 140.656 12.2792C140.08 12.2792 139.805 10.9424 139.805 10.2653C139.805 9.70644 139.997 9.55114 140.226 9.55114C140.665 9.55114 141.077 10.3386 141.077 11.4645V11.5105Z" fill="#001D38"/>
<path d="M148.372 10.2282C148.372 9.47757 147.613 8.64452 146.322 8.64452C144.792 8.64452 143.85 9.71564 143.85 11.1808C143.85 12.5721 144.82 13.4606 146.386 13.4606C147.448 13.4606 148.089 12.8653 148.29 12.2887C148.336 12.1511 148.363 12.0234 148.363 11.895C148.363 11.6661 148.217 11.5105 148.034 11.5105C147.942 11.5105 147.841 11.5561 147.75 11.6477C147.421 11.9958 147.164 12.069 146.798 12.069C146.139 12.069 145.718 11.7301 145.562 11.0619H147.567C148.125 11.0619 148.372 10.8147 148.372 10.2285V10.2282ZM146.725 10.3838H145.498C145.498 9.94451 145.718 9.46838 146.148 9.46838C146.652 9.46838 146.752 9.89853 146.752 10.1734C146.752 10.2466 146.743 10.3195 146.725 10.3838Z" fill="#001D38"/>
<path d="M153.148 8.62613C152.645 8.62613 152.269 8.91017 152.269 9.42308C152.269 9.97209 152.764 10.0637 152.746 10.6495C152.736 10.8968 152.627 11.2721 152.535 11.5469C152.443 11.8122 152.315 12.1239 152.196 12.1239C152.041 12.1239 151.995 11.9958 151.931 11.8034C151.729 11.2264 151.455 10.3018 151.455 9.9629C151.455 9.58758 151.867 9.68839 151.867 9.15709C151.867 8.91017 151.684 8.76339 151.244 8.76339H149.541C149.102 8.76339 148.836 8.90098 148.836 9.18468C148.836 9.74323 149.258 9.66081 149.413 10.0821C149.678 10.8143 149.972 11.7574 150.237 12.4624C150.466 13.0758 150.841 13.4695 151.711 13.4695C152.462 13.4695 152.828 13.1126 153.204 12.2611C153.624 11.3089 154 10.1369 154 9.44999C154 8.91903 153.634 8.62613 153.149 8.62613H153.148Z" fill="#001D38"/>
<path d="M100.506 0C97.2607 0 94.9529 1.91098 94.9529 4.72346C94.9529 6.88715 96.2505 8.11322 96.7553 9.30286H95.7945C94.6045 9.30286 93.9561 9.80759 93.9561 10.7452C93.9561 11.6106 94.532 12.1875 95.7945 12.1875H96.7192V23.871C96.7192 25.3134 94.7002 25.3495 94.7002 26.395C94.7002 27.0803 95.2771 27.3327 96.3588 27.3327H101.226C102.344 27.3327 102.885 27.0803 102.885 26.395C102.885 25.3495 100.866 25.3134 100.866 23.871V12.1875H103.294C104.377 12.1875 105.134 11.7547 105.134 10.7452C105.134 9.80759 104.484 9.30286 103.294 9.30286H100.795C100.788 9.30286 100.655 8.92209 100.638 8.88497C100.278 8.10982 99.6325 7.51483 99.1032 6.85854C98.828 6.51694 98.5518 6.14503 98.3836 5.73702C98.1877 5.26191 98.1465 4.61448 98.1952 4.10565C98.2858 3.15885 98.779 2.50222 99.7585 2.4559C100.569 2.41776 101.31 2.87821 101.717 3.56618C101.926 3.91936 102.018 4.31817 102.21 4.6785C102.569 5.35182 103.18 5.84123 103.968 5.84123C105.013 5.84123 105.698 5.08413 105.698 3.85805C105.698 1.76691 103.535 0 100.506 0Z" fill="#001D38"/>
<path d="M92.7576 15.9022C92.7576 11.8637 90.1611 8.83456 85.2935 8.83456C79.9206 8.83456 76.0986 12.9092 76.0986 18.5342C76.0986 24.0873 79.8845 27.8735 85.6178 27.8735C88.8999 27.8735 91.4954 26.0705 92.5049 23.7627C92.6854 23.4385 92.7576 23.1139 92.7576 22.8255C92.7576 22.3204 92.4327 21.9958 92.0002 21.9958C91.6398 21.9958 91.3871 22.1402 91.0268 22.5009C89.7285 23.8349 88.5385 24.5563 86.6994 24.5563C83.2017 24.5563 80.7863 21.924 80.4253 18.1017H90.4502C92.0727 18.1017 92.7576 17.4164 92.7576 15.9022ZM88.418 15.9639H80.428C80.7335 12.7199 82.4838 10.7939 84.7891 10.7939C87.3489 10.7939 88.4667 12.5792 88.4667 15.3791C88.4667 15.563 88.4497 15.7272 88.4183 15.9639H88.418Z" fill="#001D38"/>
<path d="M51.9631 8.78382C49.7303 8.78382 47.5683 9.75583 46.3085 11.1249H46.2002V10.2602C46.2002 9.25211 45.624 8.81992 44.8672 8.81992C43.2468 8.81992 40.0767 9.97243 40.0767 11.0166C40.0767 11.7373 40.5807 11.7734 41.5898 12.5291C42.13 12.9259 42.3105 13.3939 42.3105 14.2228L42.3047 32.3599C42.3047 33.8023 40.2858 33.8384 40.2858 34.8839C40.2858 35.5692 40.8627 35.8215 41.9444 35.8215H46.8119C47.9297 35.8215 48.4705 35.5692 48.4705 34.8839C48.4705 33.8384 46.4516 33.8023 46.4516 32.3599V26.0361C47.6763 27.0803 49.4051 27.8732 51.8906 27.8732C56.9689 27.8732 60.4987 23.7311 60.4987 18.1848C60.4987 12.2417 56.8967 8.78416 51.9628 8.78416L51.9631 8.78382ZM55.8072 19.8257C55.7367 23.5724 54.1554 25.7231 51.4846 25.7231C48.3915 25.7231 46.2827 21.5943 46.3181 17.1191C46.3872 13.4484 47.9072 11.3109 50.4806 11.2258C50.533 11.2224 50.5865 11.2206 50.6407 11.2217C53.7338 11.2217 55.8426 15.3505 55.8072 19.8257Z" fill="#001D38"/>
<path d="M27.116 3.67449C27.0374 1.63273 25.7268 0.270764 23.633 0.19141C16.9597 -0.0609578 10.2854 -0.0667476 3.61182 0.19175C1.56495 0.270764 0.211498 1.63273 0.128738 3.67449C0.0507459 5.60828 0.00647096 8.27738 0 9.98946C0 10.843 0.666168 11.488 1.56086 11.488C2.04414 11.488 2.46169 11.2956 2.74845 10.988C2.7539 10.985 2.76174 10.9846 2.76548 10.9802C3.03897 10.6791 3.2348 10.3079 3.50385 10.001C3.83217 9.62675 4.21021 9.28515 4.63219 9.0195C5.45945 8.49842 6.37151 8.20655 7.44535 8.20655C10.2694 8.20655 12.5673 10.2745 12.5673 13.3496C12.5673 16.4638 10.3297 18.5679 7.27779 18.5679C5.44514 18.5679 3.82195 17.7733 2.92351 16.2333C2.91193 16.2132 2.89695 16.1978 2.88469 16.1791C2.8789 16.1709 2.87311 16.1631 2.86732 16.1549C2.83019 16.1028 2.78932 16.0558 2.74505 16.0139C2.45862 15.7088 2.0421 15.518 1.5612 15.518C0.777537 15.518 0.169607 16.0132 0.0306519 16.7094C0.00919558 16.7714 0 16.8555 0.000340577 17.0162C0.00613038 18.7246 0.0527894 21.6614 0.129079 23.6953C0.166542 24.6952 0.572169 25.6696 1.34017 26.3269C2.21647 27.0772 3.21028 27.0776 4.28207 27.272C4.6516 27.3391 5.02215 27.4587 5.30585 27.7148C5.7159 28.0853 5.86712 28.6974 5.73531 29.2338C5.59125 29.8185 5.17268 30.2007 4.69996 30.5327C4.26232 30.8403 3.85874 31.1689 3.5168 31.5837C2.78694 32.4686 2.4089 33.5853 2.4089 34.7293C2.4089 37.8435 4.56986 40.0764 7.72326 40.0764C10.8375 40.0764 13.0836 37.9808 13.0836 35.0426C13.0836 33.8976 12.7699 32.7509 12.0912 31.8191C11.7683 31.376 11.3708 30.9935 10.9213 30.6809C10.47 30.3672 10.0136 30.1349 9.78409 29.5989C9.65433 29.2954 9.6104 28.9531 9.68362 28.6296C10.0068 27.1981 11.6052 27.3551 12.7233 27.3592C14.2909 27.365 15.8586 27.3579 17.426 27.3364C19.4956 27.3081 21.565 27.2557 23.6333 27.178C25.5899 27.1045 27.0377 25.6999 27.1164 23.695C27.3783 17.0217 27.3735 10.3474 27.1164 3.67381L27.116 3.67449Z" fill="#FFCA16"/>
</svg>
